<?xml version="1.0" encoding="UTF-8" standalone="no"?>
<svg
   version="1.1"
   x="0px"
   y="0px"
   viewBox="0 0 100 100"
   style="enable-background:new 0 0 100 100;"
   xml:space="preserve"
   id="svg235"
   sodipodi:docname="brush_edit.svg"
   inkscape:version="1.2 (dc2aedaf03, 2022-05-15)"
   xmlns:inkscape="http://www.inkscape.org/namespaces/inkscape"
   xmlns:sodipodi="http://sodipodi.sourceforge.net/DTD/sodipodi-0.dtd"
   xmlns="http://www.w3.org/2000/svg"
   xmlns:svg="http://www.w3.org/2000/svg"><defs
     id="defs239" /><sodipodi:namedview
     id="namedview237"
     pagecolor="#ffffff"
     bordercolor="#666666"
     borderopacity="1.0"
     inkscape:showpageshadow="2"
     inkscape:pageopacity="0.0"
     inkscape:pagecheckerboard="0"
     inkscape:deskcolor="#d1d1d1"
     showgrid="false"
     inkscape:zoom="2.36"
     inkscape:cx="-3.8135593"
     inkscape:cy="33.686441"
     inkscape:window-width="1366"
     inkscape:window-height="709"
     inkscape:window-x="0"
     inkscape:window-y="0"
     inkscape:window-maximized="1"
     inkscape:current-layer="svg235" /><path
     d="M42,91.9c-4,5.4-10.6,6.7-15.4,6.8c-5.7,0.2-10.6-1.2-13-2.2c6.2-2.6,8.5-6.4,10.9-10.4c1.3-2.2,2.6-4.4,4.7-6.6  c1.6-1.7,3.8-2.7,6.2-2.7c2.4-0.1,4.6,0.8,6.3,2.4C45.7,82.9,44.6,88.4,42,91.9z"
     id="path231"
     style="fill:#2b1100" /><path
     d="M84.4,7.4L45.8,78.9c-0.5-0.7-1-1.4-1.7-2c-2.3-2.2-5.3-3.4-8.5-3.3L79,4.3c0.8-1.4,2.6-1.9,4.1-1.1l0.3,0.2  C84.7,4.2,85.2,6,84.4,7.4z"
     id="path233"
     style="fill:#6c5353" /></svg>
