<?xml version="1.0" encoding="UTF-8"?>
<!DOCTYPE svg PUBLIC "-//W3C//DTD SVG 1.1//EN" "http://www.w3.org/Graphics/SVG/1.1/DTD/svg11.dtd">
<!-- Creator: CorelDRAW X5 -->
<svg xmlns="http://www.w3.org/2000/svg" xml:space="preserve" width="132.343mm" height="137.865mm" style="shape-rendering:geometricPrecision; text-rendering:geometricPrecision; image-rendering:optimizeQuality; fill-rule:evenodd; clip-rule:evenodd"
viewBox="0 0 108.697 113.232"
 xmlns:xlink="http://www.w3.org/1999/xlink">
 <defs>
  <style type="text/css">
   <![CDATA[
    .str0 {stroke:black;stroke-width:0.062585}
    .str1 {stroke:gray;stroke-width:0.062585}
    .fil0 {fill:black}
    .fil10 {fill:#211515}
    .fil26 {fill:#401313}
    .fil7 {fill:#4A1313}
    .fil16 {fill:#4A5F80}
    .fil15 {fill:#4D4D4D}
    .fil23 {fill:#5E1818}
    .fil1 {fill:gray}
    .fil19 {fill:#963030}
    .fil32 {fill:#999999}
    .fil8 {fill:#9E1414}
    .fil14 {fill:#9EB4C9}
    .fil17 {fill:#B3B3B3}
    .fil13 {fill:#CC3300}
    .fil5 {fill:#CCCCCC}
    .fil25 {fill:#E6E6E6}
    .fil3 {fill:#666666;fill-rule:nonzero}
    .fil31 {fill:gray;fill-rule:nonzero}
    .fil4 {fill:#CCCCCC;fill-rule:nonzero}
    .fil20 {fill:url(#id0)}
    .fil28 {fill:url(#id1)}
    .fil27 {fill:url(#id2)}
    .fil9 {fill:url(#id3)}
    .fil18 {fill:url(#id4)}
    .fil12 {fill:url(#id5)}
    .fil6 {fill:url(#id6)}
    .fil30 {fill:url(#id7)}
    .fil22 {fill:url(#id8)}
    .fil2 {fill:url(#id9)}
    .fil11 {fill:url(#id10)}
    .fil29 {fill:url(#id11)}
    .fil21 {fill:url(#id12)}
    .fil24 {fill:url(#id13)}
   ]]>
  </style>
  <linearGradient id="id0" gradientUnits="userSpaceOnUse" x1="20.7569" y1="67.7568" x2="20.7569" y2="76.5142">
   <stop offset="0" style="stop-color:#999999"/>
   <stop offset="1" style="stop-color:#333333"/>
  </linearGradient>
  <linearGradient id="id1" gradientUnits="userSpaceOnUse" x1="47.0868" y1="68.9029" x2="75.2801" y2="68.9029">
   <stop offset="0" style="stop-color:#6699FF"/>
   <stop offset="1" style="stop-color:#E6E6E6"/>
  </linearGradient>
  <linearGradient id="id2" gradientUnits="userSpaceOnUse" x1="21.6948" y1="76.4608" x2="17.9244" y2="68.7944">
   <stop offset="0" style="stop-color:#CCCCCC"/>
   <stop offset="1" style="stop-color:#FEFEFE"/>
  </linearGradient>
  <linearGradient id="id3" gradientUnits="userSpaceOnUse" xlink:href="#id2" x1="44.8217" y1="73.7436" x2="95.7628" y2="112.807">
  </linearGradient>
  <linearGradient id="id4" gradientUnits="userSpaceOnUse" x1="31.5989" y1="70.5534" x2="26.1258" y2="65.0047">
   <stop offset="0" style="stop-color:#F24646"/>
   <stop offset="1" style="stop-color:#FEFEFE"/>
  </linearGradient>
  <linearGradient id="id5" gradientUnits="userSpaceOnUse" x1="47.008" y1="27.677" x2="63.0479" y2="76.7413">
   <stop offset="0" style="stop-color:white"/>
   <stop offset="0.831373" style="stop-color:#F3F3F3"/>
   <stop offset="1" style="stop-color:#E6E6E6"/>
  </linearGradient>
  <linearGradient id="id6" gradientUnits="userSpaceOnUse" xlink:href="#id5" x1="40.6774" y1="-3.65711" x2="61.5298" y2="52.3837">
  </linearGradient>
  <linearGradient id="id7" gradientUnits="userSpaceOnUse" xlink:href="#id4" x1="44.8254" y1="73.4362" x2="31.8919" y2="63.5694">
  </linearGradient>
  <linearGradient id="id8" gradientUnits="userSpaceOnUse" xlink:href="#id4" x1="87.3123" y1="64.604" x2="73.1535" y2="55.9585">
  </linearGradient>
  <linearGradient id="id9" gradientUnits="userSpaceOnUse" xlink:href="#id5" x1="13.7874" y1="-5.06076" x2="34.7153" y2="48.132">
  </linearGradient>
  <linearGradient id="id10" gradientUnits="userSpaceOnUse" x1="68.4822" y1="93.3944" x2="52.9144" y2="60.1989">
   <stop offset="0" style="stop-color:#B80606"/>
   <stop offset="1" style="stop-color:#FF2E2E"/>
  </linearGradient>
  <linearGradient id="id11" gradientUnits="userSpaceOnUse" xlink:href="#id10" x1="42.9408" y1="75.3549" x2="38.4637" y2="66.5763">
  </linearGradient>
  <linearGradient id="id12" gradientUnits="userSpaceOnUse" xlink:href="#id10" x1="85.4195" y1="67.0184" x2="81.327" y2="59.1941">
  </linearGradient>
  <linearGradient id="id13" gradientUnits="userSpaceOnUse" x1="57.0163" y1="76.0355" x2="82.3253" y2="100.371">
   <stop offset="0" style="stop-color:#B3B3B3"/>
   <stop offset="0.431373" style="stop-color:#D4D4D4"/>
   <stop offset="1" style="stop-color:whitesmoke"/>
  </linearGradient>
 </defs>
 <g id="Layer_x0020_1">
  <metadata id="CorelCorpID_0Corel-Layer"/>
  <path class="fil0" d="M73.6098 50.3634c0,0 -0.651804,-3.1129 0.289763,-3.41137 0.941567,-0.29847 1.95582,-0.628232 2.57149,0.029157 0.615665,0.657306 1.08653,4.0116 1.08653,4.0116l-3.94778 -0.629381z"/>
  <polygon class="fil1" points="80.4048,55.3538 81.3746,69.4065 40.5046,75.4911 36.2098,65.0603 52.4193,59.4102 70.0141,56.0782 "/>
  <g>
   <path class="fil2" d="M48.3144 23.9867c-13.0918,-14.7068 -25.7971,-20.913 -34.9739,-23.8629 -4.19944,7.54067 -2.93837,14.5335 -13.1525,25.5195 17.4667,5.22593 15.036,9.091 32.5798,17.3039 5.99518,-4.28551 9.80761,-13.79 15.5465,-18.9605z"/>
   <path id="1" class="fil3" d="M13.4301 0.174121l-0.179213 -0.10053 0.120899 -0.0478833 0.871919 0.286642 0.891959 0.306765 0.911589 0.327791 0.930561 0.349802 0.948877 0.372717 0.966782 0.396618 0.98403 0.421586 1.00062 0.447294 1.0168 0.474151 1.03216 0.501912 1.04727 0.53074 1.06148 0.560226 1.07536 0.591026 1.0885 0.622482 1.10115 0.655089 1.11314 0.688681 1.12456 0.723012 1.13556 0.758576 1.14583 0.794878 1.1556 0.832331 1.16464 0.870522 1.17326 0.909946 1.18131 0.950109 1.18862 0.991257 1.1956 1.03347 1.20176 1.07651 1.20759 1.12062 1.21252 1.16562 1.2172 1.21162 1.22106 1.25852 1.22451 1.30648 1.22731 1.35535 -0.153095 0.137326 -1.22501 -1.35272 -1.22205 -1.30385 -1.2186 -1.25605 -1.21458 -1.20899 -1.21006 -1.16316 -1.2048 -1.11815 -1.19913 -1.07421 -1.19281 -1.03101 -1.18583 -0.988958 -1.17852 -0.947809 -1.17031 -0.907646 -1.16185 -0.868387 -1.15265 -0.830195 -1.14287 -0.792907 -1.13244 -0.75644 -1.1216 -0.721206 -1.11019 -0.68671 -1.09803 -0.653282 -1.08555 -0.62084 -1.07224 -0.589219 -1.05852 -0.558747 -1.04415 -0.529098 -1.0292 -0.500433 -1.01384 -0.472837 -0.997664 -0.44598 -0.981073 -0.420272 -0.963825 -0.395468 -0.946084 -0.371567 -0.927769 -0.348817 -0.908796 -0.326805 -0.889331 -0.305779 -0.86929 -0.285821 0.120899 -0.0478833zm-0.179213 -0.10053l0.0409841 -0.0735907 0.0799149 0.0257075 -0.120899 0.0478833zm-13.0335 25.471l-0.0586426 0.197447 -0.0457478 -0.169029 0.922841 -1.01655 0.858695 -0.993885 0.797589 -0.971956 0.739685 -0.951094 0.684903 -0.93089 0.633159 -0.911507 0.584619 -0.893109 0.539118 -0.875368 0.49682 -0.858777 0.45756 -0.842762 0.421422 -0.827731 0.388487 -0.813605 0.358426 -0.800217 0.331733 -0.787815 0.307997 -0.776234 0.287382 -0.765475 0.269887 -0.755701 0.255514 -0.746667 0.24418 -0.738535 0.235967 -0.731226 0.230874 -0.724902 0.228903 -0.719234 0.229971 -0.714471 0.23416 -0.71061 0.241552 -0.707489 0.251818 -0.70519 0.265534 -0.703793 0.282043 -0.703136 0.301919 -0.703136 0.324752 -0.704204 0.350624 -0.705929 0.379781 -0.708229 0.179213 0.10053 -0.37666 0.702644 -0.347995 0.700344 -0.322288 0.698948 -0.299784 0.698373 -0.2804 0.698865 -0.264056 0.700015 -0.250833 0.702069 -0.24073 0.705025 -0.233503 0.708968 -0.229642 0.713485 -0.228739 0.718906 -0.231039 0.72523 -0.236295 0.732376 -0.244837 0.740342 -0.256336 0.748966 -0.270873 0.758494 -0.288696 0.768925 -0.309475 0.780012 -0.333376 0.791922 -0.360562 0.804652 -0.390622 0.818204 -0.423886 0.832495 -0.460188 0.84769 -0.499612 0.863541 -0.542075 0.880296 -0.58774 0.897873 -0.636445 0.916106 -0.688188 0.935325 -0.742971 0.955365 -0.801038 0.976063 -0.861981 0.997828 -0.926126 1.02017 -0.0457478 -0.169029zm-0.0586426 0.197447l-0.158762 -0.0474726 0.113014 -0.121556 0.0457478 0.169029zm32.5496 17.1213l0.119092 0.167879 -0.102912 0.00944524 -1.58885 -0.758083 -1.47904 -0.733608 -1.37679 -0.710364 -1.2816 -0.688024 -1.1938 -0.666834 -1.11322 -0.646547 -1.03996 -0.62741 -0.973927 -0.609095 -0.915203 -0.592093 -0.863788 -0.575913 -0.819518 -0.560719 -0.782476 -0.546674 -0.752909 -0.533451 -0.730404 -0.521459 -0.715374 -0.510371 -0.707407 -0.500351 -0.706832 -0.491317 -0.713649 -0.483514 -0.727694 -0.476615 -0.749131 -0.470866 -0.777877 -0.466184 -0.813933 -0.462735 -0.857463 -0.460106 -0.908386 -0.458874 -0.966453 -0.458464 -1.03199 -0.459285 -1.10485 -0.46101 -1.18501 -0.463802 -1.27256 -0.467827 -1.36734 -0.472673 -1.46951 -0.478586 -1.57883 -0.485732 0.0586426 -0.197447 1.58195 0.486553 1.4728 0.479736 1.37096 0.473987 1.2765 0.469141 1.18911 0.465445 1.10912 0.462817 1.03643 0.461256 0.971053 0.460599 0.912821 0.461174 0.861899 0.46257 0.818204 0.465034 0.781819 0.468648 0.75258 0.473001 0.730651 0.478586 0.715949 0.484992 0.708639 0.492467 0.708393 0.501173 0.715703 0.510536 0.73024 0.521295 0.751923 0.532958 0.781162 0.545688 0.817711 0.559405 0.861488 0.574435 0.912739 0.590451 0.971135 0.607452 1.03717 0.625603 1.11027 0.644904 1.19067 0.665027 1.27864 0.686546 1.37383 0.708721 1.47625 0.732293 1.58606 0.756769 -0.102912 0.00944524zm0.119092 0.167879l-0.0487046 0.0348242 -0.0542075 -0.0253789 0.102912 -0.00944524zm15.4104 -18.9758l0.153095 -0.137326 -0.00796685 0.145375 -0.529919 0.494684 -0.519735 0.518503 -0.510125 0.540514 -0.501419 0.560965 -0.493288 0.579445 -0.48606 0.5962 -0.47949 0.611394 -0.473576 0.6247 -0.468566 0.636281 -0.464131 0.646054 -0.460517 0.654103 -0.45756 0.660592 -0.455507 0.665027 -0.454028 0.667902 -0.453536 0.668887 -0.453536 0.668312 -0.454439 0.665848 -0.456082 0.661742 -0.458382 0.655746 -0.461585 0.648108 -0.465527 0.638662 -0.470126 0.627657 -0.475629 0.614598 -0.481789 0.599978 -0.488771 0.583634 -0.496491 0.5654 -0.505115 0.545442 -0.514314 0.523923 -0.524498 0.500433 -0.535422 0.475219 -0.547002 0.448361 -0.559405 0.419451 -0.119092 -0.167879 0.552177 -0.41403 0.540432 -0.442941 0.529508 -0.470126 0.519406 -0.495505 0.509879 -0.519324 0.501173 -0.541335 0.493206 -0.561622 0.485814 -0.58002 0.479325 -0.597021 0.473494 -0.611805 0.46832 -0.625193 0.464049 -0.636691 0.460435 -0.646465 0.45756 -0.654432 0.455425 -0.660756 0.453946 -0.665355 0.453371 -0.667984 0.453536 -0.669051 0.454357 -0.66823 0.456 -0.665848 0.458382 -0.661577 0.461503 -0.655582 0.465445 -0.647861 0.470044 -0.638416 0.475547 -0.627164 0.481625 -0.614187 0.488688 -0.599485 0.496409 -0.583059 0.504869 -0.564743 0.514232 -0.544785 0.524334 -0.523102 0.535011 -0.499612 -0.00796685 0.145375zm0.153095 -0.137326l0.0682521 0.0767118 -0.076219 0.0686628 0.00796685 -0.145375z"/>
  </g>
  <path class="fil4" d="M19.3039 31.2601c0.872822,-1.34714 1.77915,-2.64417 2.66758,-3.91575 3.22411,-4.61453 6.21275,-8.89191 6.82406,-14.5931l0.814919 0.0865677c-0.63357,5.9082 -3.68093,10.2698 -6.96845,14.9751 -0.878079,1.25679 -1.7739,2.53872 -2.65148,3.89325l-0.686628 -0.44598z"/>
  <path class="fil5" d="M48.3144 23.9867c-2.1384,-2.40213 -4.26637,-4.57618 -6.37036,-6.5476l-9.89105 0.537311 -4.9875 8.69241c0,0 7.45599,-3.16013 15.0941,4.88886 1.91985,-2.80745 3.88684,-5.52768 6.15476,-7.57097z"/>
  <g>
   <path class="fil6" d="M74.8685 35.4513c-4.83309,-19.0816 -13.9325,-29.4786 -26.1896,-33.4471 -7.11341,5.35356 -14.2267,10.7073 -21.3402,16.0609 19.388,11.0624 13.9181,13.5912 24.0691,28.6572 7.66206,-2.54652 15.7986,-8.72444 23.4607,-11.271z"/>
   <path id="1" class="fil3" d="M48.7407 2.08617l-0.123692 -0.163936 0.0940417 -0.0158516 1.1432 0.392101 1.12448 0.430374 1.10567 0.468977 1.08645 0.50799 1.06715 0.547495 1.04752 0.58733 1.02789 0.627657 1.00777 0.668312 0.987643 0.709378 0.96711 0.750855 0.946495 0.792825 0.925715 0.834959 0.90469 0.877832 0.883253 0.92087 0.861816 0.964236 0.840216 1.00826 0.818286 1.05253 0.796193 1.09721 0.773852 1.14222 0.75143 1.1878 0.728762 1.23371 0.705765 1.27995 0.682685 1.32669 0.659524 1.37391 0.63587 1.4213 0.61238 1.46927 0.588397 1.51756 0.564415 1.56643 0.540021 1.61555 0.515628 1.66515 0.490988 1.71509 0.46602 1.7656 -0.199746 0.0510864 -0.465034 -1.7615 -0.489838 -1.71098 -0.514314 -1.66088 -0.538543 -1.61111 -0.562772 -1.56183 -0.58659 -1.51296 -0.610245 -1.4645 -0.633734 -1.41638 -0.65706 -1.36882 -0.680057 -1.32159 -0.702972 -1.2747 -0.725641 -1.22846 -0.747981 -1.18238 -0.770239 -1.13696 -0.79225 -1.09179 -0.814015 -1.04711 -0.83578 -1.00284 -0.857053 -0.958979 -0.878325 -0.915613 -0.899269 -0.872576 -0.92013 -0.830031 -0.940746 -0.787897 -0.961197 -0.746256 -0.981401 -0.704943 -1.00136 -0.664041 -1.02132 -0.623714 -1.04095 -0.583551 -1.06041 -0.544046 -1.07971 -0.504869 -1.09877 -0.46602 -1.11774 -0.427746 -1.13647 -0.389801 0.0940417 -0.0158516zm-0.123692 -0.163936l0.0430374 -0.0323602 0.0510043 0.0165086 -0.0940417 0.0158516zm-21.2269 16.0536l-0.10283 0.178556 -0.0104308 -0.171246 0.666916 -0.501912 0.666834 -0.501912 0.666916 -0.501912 0.666834 -0.501912 0.666916 -0.501912 0.666834 -0.501912 0.666916 -0.50183 0.666916 -0.501912 0.666834 -0.501912 0.666916 -0.501912 0.666834 -0.501912 0.666916 -0.501912 0.666834 -0.501912 0.666916 -0.501912 0.666834 -0.501912 0.666916 -0.501912 0.666916 -0.501912 0.666834 -0.501912 0.666916 -0.501912 0.666834 -0.501912 0.666916 -0.50183 0.666834 -0.501912 0.666916 -0.501912 0.666834 -0.501912 0.666916 -0.501912 0.666916 -0.501912 0.666834 -0.501912 0.666916 -0.501912 0.666834 -0.501912 0.666916 -0.50183 0.666834 -0.501912 0.666916 -0.501912 0.123692 0.163936 -0.666916 0.501912 -0.666834 0.501912 -0.666916 0.50183 -0.666834 0.501912 -0.666916 0.501912 -0.666834 0.501912 -0.666916 0.501912 -0.666916 0.501912 -0.666834 0.501912 -0.666916 0.501912 -0.666834 0.501912 -0.666916 0.50183 -0.666834 0.501912 -0.666916 0.501912 -0.666834 0.501912 -0.666916 0.501912 -0.666916 0.501912 -0.666834 0.501912 -0.666916 0.501912 -0.666834 0.501912 -0.666916 0.501912 -0.666834 0.501912 -0.666916 0.501912 -0.666834 0.501912 -0.666916 0.501912 -0.666916 0.50183 -0.666834 0.501912 -0.666916 0.501912 -0.666834 0.501912 -0.666916 0.501912 -0.666834 0.501912 -0.666916 0.501912 -0.0104308 -0.171246zm-0.10283 0.178556l-0.135354 -0.0772046 0.124924 -0.0940417 0.0104308 0.171246zm24.0883 28.4704l0.0643919 0.194983 -0.117778 -0.0399164 -0.908303 -1.3781 -0.824118 -1.30845 -0.747406 -1.24283 -0.678004 -1.1809 -0.615994 -1.12275 -0.56154 -1.06846 -0.514232 -1.01795 -0.474562 -0.971217 -0.442037 -0.928262 -0.417069 -0.889167 -0.39941 -0.853767 -0.389144 -0.822311 -0.386351 -0.794468 -0.390704 -0.770649 -0.402778 -0.750691 -0.421997 -0.734593 -0.44869 -0.72252 -0.482857 -0.714471 -0.524498 -0.710282 -0.573449 -0.7102 -0.630203 -0.713978 -0.694184 -0.721945 -0.765721 -0.733443 -0.844815 -0.749131 -0.931383 -0.768596 -1.02518 -0.791839 -1.12678 -0.818861 -1.23552 -0.849989 -1.35165 -0.884649 -1.47535 -0.923334 -1.60627 -0.965632 -1.74474 -1.01204 0.10283 -0.178556 1.74737 1.01352 1.60922 0.967439 1.47863 0.925305 1.35543 0.887113 1.23963 0.852782 1.13121 0.822311 1.03027 0.795618 0.936639 0.773031 0.850564 0.754059 0.771635 0.739193 0.700097 0.728023 0.635952 0.720713 0.579198 0.717099 0.52959 0.717345 0.487456 0.721206 0.452632 0.728926 0.425282 0.740178 0.405242 0.755291 0.392676 0.774427 0.387501 0.796932 0.389801 0.823625 0.399575 0.854096 0.41674 0.888509 0.44138 0.926783 0.473412 0.969081 0.512918 1.01532 0.559897 1.06534 0.614187 1.11947 0.676033 1.17729 0.74527 1.23922 0.821818 1.305 0.906004 1.37465 -0.117778 -0.0399164zm0.0643919 0.194983l-0.0742478 0.0246398 -0.0435302 -0.0645561 0.117778 0.0399164zm23.3286 -11.3429l0.199746 -0.0510864 -0.0676772 0.123034 -0.717263 0.248451 -0.72022 0.268245 -0.722684 0.286889 -0.725312 0.304301 -0.727365 0.320317 -0.729583 0.334936 -0.731472 0.348324 -0.733197 0.360315 -0.734757 0.370993 -0.736072 0.380438 -0.737304 0.388487 -0.738289 0.395057 -0.73911 0.40056 -0.739685 0.404585 -0.740178 0.407295 -0.740425 0.408691 -0.740589 0.408773 -0.740507 0.407459 -0.740342 0.404913 -0.739932 0.401053 -0.739275 0.395714 -0.738618 0.389144 -0.737714 0.381259 -0.736564 0.371978 -0.735332 0.361301 -0.733936 0.349474 -0.732376 0.33625 -0.730651 0.321631 -0.728762 0.305779 -0.726626 0.288531 -0.724491 0.269887 -0.722027 0.249929 -0.0643919 -0.194983 0.717263 -0.248451 0.72022 -0.268245 0.722684 -0.286889 0.725312 -0.304301 0.727365 -0.320317 0.729583 -0.334936 0.731472 -0.348324 0.733197 -0.360315 0.734757 -0.370993 0.736072 -0.380438 0.737304 -0.388487 0.738289 -0.395057 0.73911 -0.40056 0.739685 -0.404585 0.740178 -0.407295 0.740425 -0.408773 0.740589 -0.408691 0.740507 -0.407459 0.740342 -0.404913 0.739932 -0.401053 0.739275 -0.395714 0.738618 -0.389144 0.737714 -0.381259 0.736564 -0.371978 0.735332 -0.361301 0.733936 -0.349474 0.732376 -0.33625 0.730651 -0.321631 0.728762 -0.305779 0.726626 -0.288531 0.724491 -0.269887 0.722027 -0.249929 -0.0676772 0.123034zm0.199746 -0.0510864l0.0234899 0.0927276 -0.0911671 0.0303069 0.0676772 -0.123034z"/>
  </g>
  <path class="fil4" d="M51.9 38.5139c2.37724,-1.31814 4.9006,-2.74692 7.70526,-4.58094 2.7999,-1.83098 5.86615,-4.05718 9.31966,-6.96402l0.526141 0.625685c-3.49548,2.94215 -6.5844,5.18593 -9.3967,7.02496 -2.80762,1.83599 -5.35463,3.27783 -7.75651,4.60969l-0.39785 -0.715374z"/>
  <path class="fil0 str0" d="M28.6252 62.0551l-0.761943 -2.86117 0.400889 -0.2519 0.707407 2.67851 2.28591 -1.12275 -0.380931 -2.46291 0.311693 -0.362122 0.658128 2.39038 4.95284 -1.84716 -0.588808 -2.20928 0.381013 -0.217323 0.762025 1.88338 3.25573 -0.83307 -0.554148 -2.28172 3.74064 -0.905429 1.66244 3.94778c0,0 -4.43327,1.8833 -5.43775,2.13684 -1.00448,0.253543 -6.99638,1.84716 -7.20425,1.88338 -0.207795,0.0362204 -4.19089,0.434563 -4.19089,0.434563z"/>
  <path class="fil0 str0" d="M26.6164 59.194c0.103898,0.193176 0.207795,0.386269 0.311693,0.579445 2.86856,-0.94822 5.77178,-2.11384 8.64018,-3.06198 2.71924,-0.898858 5.40415,-1.58048 8.12348,-2.47942 -0.0808184,-0.253543 -0.161637,-0.507004 -0.242455,-0.760547 -5.70755,1.70573 -11.3103,3.63042 -16.8329,5.7225z"/>
  <path class="fil0 str0" d="M27.4823 61.367c6.60083,-3.00515 12.8298,-5.16811 18.8764,-6.91769 0.542567,2.41453 1.08522,4.82914 1.62778,7.24368l-8.94579 2.97558 0.385612 3.74023 -10.5226 3.16095 -5.26609 1.02493c-0.40557,-2.32813 2.96843,-8.162 3.84462,-11.2277z"/>
  <path class="fil7" d="M23.9151 74.6956l1.10838 4.20132 1.31617 -0.579527 3.53277 9.56162 -1.03906 0.86929 4.087 7.09871c0,0 4.57199,2.68015 8.17407,5.93982 3.60209,3.25967 12.1223,11.445 12.1223,11.445l2.9787 -6.59171 -0.415673 -8.04053 -19.3959 -26.0047 -4.64114 -2.82503 -2.53954 -0.434563 0.3089 1.77636 -0.743135 0.384709 -0.594804 -0.31391 -0.363847 -1.91738 -5.14207 -0.21954 1.24685 5.65006z"/>
  <path class="fil8" d="M102.884 97.3683c-1.52397,2.1007 -1.93964,2.46283 -3.46361,4.56353 -16.9172,1.6709 -28.5192,4.4777 -46.3424,11.3 0.300194,-3.09065 0.531151,-6.18121 0.831345,-9.27186 4.91826,-2.99406 9.83644,-5.98803 14.7547,-8.98209 5.93424,0 11.8685,0 17.8027,0 5.6572,0.651886 10.7601,1.7385 16.4173,2.39038z"/>
  <path class="fil9 str1" d="M39.9169 89.4726c-0.55423,0 -1.10838,0 -1.66253,0 -0.184716,0.338057 -0.369432,0.676033 -0.554148,1.01409 7.36573,3.75419 7.80448,10.9945 16.1401,17.0226 3.40817,-0.939842 6.77905,-1.89595 10.1402,-2.76696 0.923744,-0.239334 1.48036,0.39284 2.394,0.159009 8.43632,-2.15918 16.2811,-3.30583 24.4601,-4.82931 0.555216,-0.103405 1.4728,-1.36241 2.02785,-1.45826 3.33819,-0.576817 6.67442,-1.01327 10.0218,-1.24562 -6.9779,-6.21521 -7.36137,-13.1975 -16.4173,-18.2539 -0.461831,-0.024147 -0.785022,-0.0482939 -1.24685,-0.0724409 -1.89332,2.2938 -3.7868,4.58768 -5.6802,6.88147 -13.6695,1.328 -25.9535,2.22136 -39.623,3.54936z"/>
  <path class="fil10" d="M39.5013 89.5452c7.24557,4.27615 8.50342,11.4657 14.6855,15.3566 2.75785,-0.736072 5.48341,-1.44635 8.19822,-2.12255 0.808677,-0.201471 1.97898,0.324341 2.78618,0.129112 8.25111,-1.99541 15.352,-3.27117 24.0904,-4.46226 0.643262,-0.0876354 2.08814,-1.18361 2.74101,-1.25876 2.66536,-0.307011 5.38691,-0.562772 8.18023,-0.760629 -6.6837,-4.96696 -7.12409,-12.4418 -14.8239,-16.588 -2.72466,-1.20727 -4.34111,-2.41453 -7.06578,-3.6218 -7.61984,1.35215 -15.2396,2.70429 -22.8594,4.05644 -3.64824,1.44874 -7.29657,2.89747 -10.9448,4.34621 -1.8934,1.59362 -3.0941,3.33203 -4.98758,4.92565z"/>
  <path class="fil11" d="M34.7909 74.1165c1.13138,5.07053 2.12428,10.7207 3.25565,15.7912 15.1242,-3.59773 33.0886,-7.5575 48.5591,-10.5757 -0.29888,-5.38452 -0.855739,-10.1895 -0.0692377,-15.6464 -5.28055,0.663713 -10.7983,1.40192 -16.2755,2.1274 -3.88733,0.514807 -3.7367,6.96311 -7.48449,7.43422 -1.92198,0.366557 -7.86181,-5.20654 -9.78371,-4.84007 -5.42066,1.0338 -10.8415,2.06777 -16.2622,3.10165 -0.646629,0.869208 -1.29309,1.7385 -1.93964,2.60771z"/>
  <path class="fil8" d="M34.7909 74.1165c0.102091,0.457478 0.203032,0.91972 0.302987,1.38574 7.43734,-1.9366 14.8748,-3.61137 22.3122,-4.99152 -1.79969,-1.18681 -3.53047,-2.27195 -4.41331,-2.10358 -5.42066,1.0338 -10.8415,2.06777 -16.2622,3.10165 -0.646629,0.869208 -1.29309,1.7385 -1.93964,2.60771zm51.4334 -7.4086c0.0634884,-0.989861 0.163936,-1.99451 0.312104,-3.02231 -5.28055,0.663713 -10.7983,1.40192 -16.2755,2.1274 -1.7114,0.226686 -2.64015,1.60347 -3.46353,3.11389 6.47557,-0.980662 12.9511,-1.72758 19.4269,-2.21897z"/>
  <polygon class="fil0" points="71.609,49.743 82.9001,49.0187 83.1079,54.7412 80.7439,56.44 69.6,55.5379 69.4615,50.8296 "/>
  <g>
   <path class="fil12" d="M73.4196 59.3045c0,0 0.475465,-20.1374 -4.99694,-26.8016 -10.187,1.42582 -31.9938,11.9556 -31.7955,12.1693 5.5855,4.52098 6.68633,15.1575 8.35994,22.6001l19.5132 4.64287 8.91926 -12.6107z"/>
   <path id="1" class="fil3" d="M68.4368 32.605l-0.0284178 -0.204181 0.0933847 0.036549 0.501255 0.670366 0.466184 0.74256 0.432756 0.808512 0.400724 0.868141 0.370007 0.92202 0.340686 0.969656 0.312432 1.01113 0.285575 1.04653 0.260032 1.07602 0.235638 1.09926 0.212395 1.11635 0.190383 1.12752 0.169686 1.13228 0.149974 1.13113 0.131576 1.12374 0.114328 1.11027 0.0982305 1.09056 0.0834466 1.06477 0.0696484 1.03298 0.0571642 0.994789 0.0458299 0.950684 0.0356455 0.900254 0.0266931 0.843747 0.0188905 0.781162 0.0122377 0.712253 0.006817 0.637266 0.00254611 0.556283 -0.000574928 0.468977 -0.00254611 0.37551 -0.00320317 0.276047 -0.00279251 0.170179 -0.00123199 0.0586426 -0.205331 -0.00492795 0.00123199 -0.0573285 0.00279251 -0.169357 0.00320317 -0.275062 0.00254611 -0.374524 0.000574928 -0.467827 -0.00254611 -0.554969 -0.006817 -0.635952 -0.0122377 -0.710939 -0.0187262 -0.779684 -0.0266931 -0.842105 -0.0356455 -0.898612 -0.0456657 -0.948713 -0.057 -0.992818 -0.0696484 -1.03085 -0.0831181 -1.06247 -0.0980662 -1.08809 -0.114 -1.10747 -0.131248 -1.12078 -0.149645 -1.12784 -0.169029 -1.12866 -0.189726 -1.12341 -0.211573 -1.11191 -0.234488 -1.09433 -0.258717 -1.07043 -0.283932 -1.04045 -0.310297 -1.00407 -0.337729 -0.961607 -0.366393 -0.912985 -0.395961 -0.857956 -0.426514 -0.79685 -0.457971 -0.729419 -0.490413 -0.656074 0.0933847 0.036549zm-0.0284178 -0.204181l0.0568357 -0.00796685 0.036549 0.0445158 -0.0933847 -0.036549zm-31.7168 12.1912l-0.128948 0.160487 -0.0105951 -0.0100202 0.0592175 -0.203032 0.176338 -0.112275 0.2873 -0.161637 0.396371 -0.210588 0.500105 -0.256418 0.598007 -0.298962 0.689831 -0.337975 0.775577 -0.373539 0.855328 -0.405406 0.928672 -0.433906 0.996103 -0.458792 1.05729 -0.480147 1.11232 -0.497805 1.16127 -0.512178 1.20398 -0.522773 1.24069 -0.529837 1.27116 -0.533451 1.29539 -0.533533 1.31355 -0.529837 1.32562 -0.522856 1.33145 -0.512178 1.3312 -0.497969 1.3248 -0.480229 1.31223 -0.458792 1.2935 -0.43407 1.26878 -0.405652 1.23782 -0.373621 1.20078 -0.33814 1.15774 -0.299044 1.10846 -0.256418 1.05335 -0.210177 0.992079 -0.160405 0.0284178 0.204181 -0.98403 0.159091 -1.04661 0.208863 -1.10304 0.255104 -1.15298 0.297895 -1.19683 0.33699 -1.23437 0.372635 -1.26583 0.404667 -1.29088 0.433085 -1.30993 0.458135 -1.32283 0.479407 -1.32923 0.497312 -1.32981 0.511521 -1.32398 0.522198 -1.31223 0.529344 -1.29408 0.532876 -1.26985 0.532958 -1.23954 0.529344 -1.20299 0.522281 -1.16012 0.511686 -1.11133 0.497477 -1.05631 0.479654 -0.995117 0.458299 -0.927687 0.433413 -0.854178 0.404913 -0.774427 0.373046 -0.688517 0.337318 -0.596364 0.298141 -0.497805 0.255268 -0.393086 0.208781 -0.281222 0.158187 -0.158926 0.100777 -0.0304712 -0.103651 -0.0105951 -0.0100202zm-0.128948 0.160487l-0.00517435 -0.00418876 -0.00542075 -0.00583141 0.0105951 0.0100202zm8.44807 22.4195l-0.0473083 0.200568 -0.0764654 -0.0776152 -0.155641 -0.707736 -0.153013 -0.724491 -0.151617 -0.739685 -0.15096 -0.753073 -0.151206 -0.764818 -0.152438 -0.774756 -0.154738 -0.783216 -0.157694 -0.789786 -0.161801 -0.794796 -0.166647 -0.797835 -0.172643 -0.799478 -0.179377 -0.799231 -0.187098 -0.797425 -0.195722 -0.793811 -0.205249 -0.78839 -0.215762 -0.781491 -0.227096 -0.77262 -0.239416 -0.76219 -0.252557 -0.750116 -0.266766 -0.736154 -0.281714 -0.720713 -0.297648 -0.703219 -0.314485 -0.684328 -0.332062 -0.663466 -0.350788 -0.641126 -0.370253 -0.617062 -0.390622 -0.591108 -0.411812 -0.563758 -0.433906 -0.534518 -0.456985 -0.503637 -0.480886 -0.471276 -0.50569 -0.437191 0.128948 -0.160487 0.515546 0.445733 0.489756 0.479982 0.46487 0.512343 0.440805 0.54306 0.417726 0.571807 0.395714 0.598992 0.374688 0.624289 0.354566 0.648025 0.335347 0.670037 0.317278 0.690242 0.299948 0.708804 0.283686 0.725641 0.268409 0.740917 0.254036 0.754223 0.240566 0.766132 0.228246 0.77607 0.216583 0.784612 0.205906 0.791182 0.196379 0.79611 0.187591 0.79956 0.179706 0.801038 0.172971 0.800956 0.166975 0.799149 0.161965 0.795618 0.157859 0.790443 0.154738 0.78338 0.152438 0.774756 0.151206 0.764489 0.150795 0.752416 0.151288 0.738535 0.152849 0.723177 0.155148 0.705929 -0.0764654 -0.0776152zm-0.0473083 0.200568l-0.0623386 -0.014866 -0.0141268 -0.0627492 0.0764654 0.0776152zm19.5132 4.64287l-19.5132 -4.64287 0.0473083 -0.200568 19.5132 4.64287 0.0600389 0.159912 -0.107347 0.0406556zm0.107347 -0.0406556l-0.0400807 0.0566714 -0.0672665 -0.0160158 0.107347 -0.0406556zm8.91926 -12.6107l-8.91926 12.6107 -0.167386 -0.119256 8.91926 -12.6107 0.186359 0.0620922 -0.0189726 0.0571642zm0.0189726 -0.0571642l-0.000739193 0.0313746 -0.0182334 0.0257896 0.0189726 -0.0571642z"/>
  </g>
  <path class="fil4" d="M48.4697 62.9027c3.71165,-1.19158 7.76349,-1.9311 11.9343,-2.64155l0.0686628 0.831427c-4.10014,0.69944 -8.07954,1.43067 -11.7013,2.59333l-0.301591 -0.783216z"/>
  <path class="fil13" d="M85.8096 48.8736l-8.65882 0.507086c-1.01417,0.108661 -2.45445,3.984 -0.0330994,3.25959 2.42135,-0.724409 8.27625,-0.796767 8.27625,-0.796767l0.415673 -2.96991z"/>
  <path class="fil14" d="M85.1866 48.4027l4.36403 -0.253543c0,0 3.22124,3.65802 -0.380931,5.3603 -1.38541,-0.144882 -2.7709,-0.289763 -4.15632,-0.434645 -1.62138,-1.29925 -1.34574,-2.89008 0.173217,-4.67211z"/>
  <path class="fil15" d="M79.0209 53.3649c0,0 1.87032,-2.10062 2.14735,0.434645 0.277115,2.53527 0.138558,5.57754 0.138558,5.57754l-1.73168 0.217323 -0.55423 -6.2295z"/>
  <path class="fil16" d="M37.2819 67.0551c0,0 13.0608,-5.8673 22.551,-7.38848 9.49025,-1.52118 20.0067,-2.71637 20.0067,-2.71637 0.412223,-0.521295 0.375838,-1.13244 -0.177899,-1.84708l-1.33342 -1.08661 -8.58958 1.37629 -12.9537 2.1007 -16.4172 4.85321 -8.79746 3.47692 5.71158 1.23141z"/>
  <path class="fil5" d="M79.5059 53.5096c-8.4778,0.805391 -15.7764,1.31149 -24.2078,3.41047 -11.0126,2.74167 -25.8304,9.01798 -25.5857,9.48318l2.0658 0.651886c4.42267,-1.81751 16.7163,-6.50038 24.1979,-8.29013 6.5398,-1.56397 17.2427,-3.03923 23.8762,-3.6618 0.43867,-0.422654 0.201964,-1.56939 -0.346435,-1.59362z"/>
  <path class="fil0" d="M42.8615 67.2724c2.76031,-1.54844 6.1987,-2.89427 10.2522,-4.05644 2.2524,3.47379 3.6089,6.80887 8.93593,5.28786 4.71153,-1.34533 4.75983,-5.71905 4.43335,-8.47501 4.45035,-0.929904 9.12689,-1.70195 14.1313,-2.24558l-5.68028 13.3284 -4.77001 4.5563 -4.74898 2.38521 -6.69043 0.664206c0,0 -7.689,-2.60762 -7.89688,-3.25959 -0.207795,-0.651968 -7.9662,-8.18533 -7.9662,-8.18533z"/>
  <ellipse class="fil0 str0" transform="matrix(0.91557 0.288742 -0.276125 0.957407 88.8926 50.9742)" rx="1.15897" ry="1.66606"/>
  <path class="fil14" d="M88.7262 49.9011c5.50009,0.359576 14.9466,2.85911 15.4626,4.34612 0.515956,1.48701 1.59329,2.1007 1.38541,4.27376 -0.207795,2.17306 -0.41559,2.17306 0.0693198,3.25959 0.484828,1.08653 3.18641,5.21533 3.04786,6.30195 -0.138558,1.08661 0.13864,4.34621 -1.66244,4.41865 -1.80108,0.0724409 -2.7709,-0.869208 -3.04794,-2.31794 -0.277115,-1.44874 0.761943,-4.1288 0.0692377,-4.92565 -0.692706,-0.79685 -2.42447,-3.33212 -2.77082,-4.70841 -0.346435,-1.37629 -0.762025,-5.21541 -0.762025,-5.21541 0,0 -6.82324,-3.36825 -12.0532,-3.15093 -0.896148,-0.597596 0.0390129,-2.08699 0.262003,-2.28172z"/>
  <polygon class="fil17" points="25.5774,62.7433 22.9412,64.1378 24.8846,68.6469 25.7504,68.3209 28.8677,67.0533 "/>
  <polygon class="fil16" points="22.7372,67.5242 22.4255,64.518 22.9797,64.0834 26.1661,69.9508 23.3606,69.5524 "/>
  <path class="fil18" d="M33.0989 66.7468c-1.69875,0.832988 -4.44772,1.62984 -5.60316,2.82503l-2.87004 -0.941649c0,0 3.07447,-2.02818 5.56817,-2.64393 0.473412,0.434645 2.43161,0.325902 2.90503,0.760547z"/>
  <polygon class="fil19" points="26.0441,71.2349 24.7217,68.6663 27.7632,69.2209 28.6449,71.5128 "/>
  <path class="fil17" d="M23.6723 58.7231l1.73185 -1.08653c0,0 0.900583,-0.217405 1.45473,0.688106 0.554066,0.905511 2.11269,3.22345 2.11269,3.22345l-0.623468 0.434645 0.381013 0.651886 -0.900501 0.470866 -1.90498 -0.905511 -2.25133 -3.47692z"/>
  <path class="fil16" d="M28.0711 63.2142l-2.68508 -3.6944c-0.294445,-0.40516 -2.92581,-2.13963 -1.71369,1.0867 1.21219,3.22633 2.56311,4.3099 2.56311,4.3099l1.83566 -1.7022z"/>
  <polygon class="fil1" points="26.9281,64.7354 28.9023,63.3228 29.699,65.2786 27.4823,66.5462 "/>
  <path class="fil19" d="M20.8158 65.6598c0.346353,-0.0361383 1.32866,-0.369268 3.74064,3.477 2.4119,3.84627 1.96716,6.63368 0.762025,7.53344 -2.12009,1.58278 -2.15581,1.4475 -3.67141,0.832988 -0.456739,-0.185127 -2.56303,-2.96983 -3.11726,-3.69424 -0.554148,-0.724409 -1.38533,-4.41865 -1.1083,-5.65006 0.277033,-1.23141 1.17762,-1.44874 1.17762,-1.44874l2.21667 -1.05039z"/>
  <path class="fil20" d="M19.1815 68.469c0.729337,-0.712253 2.14998,0.428157 3.17327,2.54718 1.02312,2.1191 1.26131,4.41429 0.532054,5.12655 -0.224632,0.219376 -1.60594,0.371567 -1.92979,0.265124 -0.727858,-0.239416 -0.535504,-1.34599 -1.24349,-2.8123 -0.685971,-1.42065 -1.8157,-3.24694 -1.74088,-4.29586 0.0366311,-0.515381 0.968589,-0.596036 1.20883,-0.830688z"/>
  <path class="fil21" d="M76.8733 61.6575c0.0230792,1.47288 0.0461585,2.94576 0.0692377,4.41865 4.57848,-0.958568 8.40068,-1.02707 12.6073,-1.01409 -0.0461585,-1.25556 0.323274,-2.51112 0.277115,-3.76668 -2.44755,-0.386351 -4.8951,-0.77262 -7.34273,-1.15897 -1.87032,0.507004 -3.74064,1.01409 -5.61096,1.52109z"/>
  <path class="fil22" d="M70.5696 60.571c3.18239,-1.35428 7.92414,-2.36402 12.9537,-2.75259 2.77608,1.06953 4.70627,2.28649 6.37299,3.54944 -4.41027,0.233338 -8.56708,0.562115 -12.9773,1.37629 -1.73176,-1.01417 -4.34054,-1.66606 -6.34942,-2.17314z"/>
  <path class="fil23" d="M47.3639 69.6255c0,0 5.888,9.27186 16.0015,7.968 10.1136,-1.30385 12.6137,-11.8796 12.6137,-11.8796l1.00645 0.35818 0.287546 -0.0140447c0,0 -2.06235,10.3042 -13.0764,12.7668 -11.0141,2.46266 -18.149,-8.04044 -18.149,-8.04044l1.31617 -1.15897z"/>
  <polygon class="fil17" points="28.5314,63.6125 29.4912,63.0331 30.3602,64.9526 29.4629,65.4053 "/>
  <path class="fil24" d="M47.8471 85.6319c1.30073,0 2.35515,0.713485 2.35515,1.59353 0,0.88005 -1.05442,1.59353 -2.35515,1.59353 -1.30081,0 -2.35523,-0.713485 -2.35523,-1.59353 0,-0.88005 1.05442,-1.59353 2.35523,-1.59353zm1.1083 5.07061c1.30073,0 2.35523,0.713485 2.35523,1.59353 0,0.88005 -1.0545,1.59353 -2.35523,1.59353 -1.30073,0 -2.35523,-0.713485 -2.35523,-1.59353 0,-0.88005 1.0545,-1.59353 2.35523,-1.59353zm4.15632 4.34612c1.30073,0 2.35515,0.713485 2.35515,1.59353 0,0.88005 -1.05442,1.59353 -2.35515,1.59353 -1.30081,0 -2.35523,-0.713485 -2.35523,-1.59353 0,-0.88005 1.05442,-1.59353 2.35523,-1.59353zm0.565811 -10.6603c1.30073,0 2.35515,0.713485 2.35515,1.59353 0,0.88005 -1.05442,1.59353 -2.35515,1.59353 -1.30081,0 -2.35523,-0.713485 -2.35523,-1.59353 0,-0.88005 1.05442,-1.59353 2.35523,-1.59353zm5.83026 -1.24349c1.30081,0 2.35523,0.713485 2.35523,1.59353 0,0.88005 -1.05442,1.59353 -2.35523,1.59353 -1.30073,0 -2.35515,-0.713485 -2.35515,-1.59353 0,-0.88005 1.05442,-1.59353 2.35515,-1.59353zm5.83034 -1.24349c1.30073,0 2.35515,0.713485 2.35515,1.59353 0,0.88005 -1.05442,1.59353 -2.35515,1.59353 -1.30081,0 -2.35523,-0.713485 -2.35523,-1.59353 0,-0.88005 1.05442,-1.59353 2.35523,-1.59353zm5.83026 -1.24349c1.30073,0 2.35515,0.713485 2.35515,1.59353 0,0.88005 -1.05442,1.59353 -2.35515,1.59353 -1.30081,0 -2.35523,-0.713485 -2.35523,-1.59353 0,-0.88005 1.05442,-1.59353 2.35523,-1.59353zm5.83026 -1.24349c1.30081,0 2.35523,0.713485 2.35523,1.59353 0,0.88005 -1.05442,1.59353 -2.35523,1.59353 -1.30073,0 -2.35515,-0.713485 -2.35515,-1.59353 0,-0.88005 1.05442,-1.59353 2.35515,-1.59353zm5.83034 -1.2434c1.30081,0 2.35523,0.713485 2.35523,1.59353 0,0.88005 -1.05442,1.59353 -2.35523,1.59353 -1.30073,0 -2.35515,-0.713485 -2.35515,-1.59353 0,-0.88005 1.05442,-1.59353 2.35515,-1.59353zm-28.9552 11.4177c1.30073,0 2.35523,0.713485 2.35523,1.59353 0,0.88005 -1.0545,1.59353 -2.35523,1.59353 -1.30073,0 -2.35523,-0.713485 -2.35523,-1.59353 0,-0.88005 1.0545,-1.59353 2.35523,-1.59353zm4.91834 -1.11372c1.30073,0 2.35523,0.713485 2.35523,1.59353 0,0.88005 -1.0545,1.59353 -2.35523,1.59353 -1.30073,0 -2.35523,-0.713485 -2.35523,-1.59353 0,-0.88005 1.0545,-1.59353 2.35523,-1.59353zm4.91826 -1.11372c1.30073,0 2.35523,0.713485 2.35523,1.59353 0,0.88005 -1.0545,1.59353 -2.35523,1.59353 -1.30073,0 -2.35523,-0.713485 -2.35523,-1.59353 0,-0.88005 1.0545,-1.59353 2.35523,-1.59353zm4.91826 -1.11372c1.30073,0 2.35523,0.713485 2.35523,1.59353 0,0.88005 -1.0545,1.59353 -2.35523,1.59353 -1.30073,0 -2.35523,-0.713485 -2.35523,-1.59353 0,-0.88005 1.0545,-1.59353 2.35523,-1.59353zm4.91826 -1.11372c1.30081,0 2.35523,0.713485 2.35523,1.59353 0,0.88005 -1.05442,1.59353 -2.35523,1.59353 -1.30073,0 -2.35515,-0.713485 -2.35515,-1.59353 0,-0.88005 1.05442,-1.59353 2.35515,-1.59353zm4.91826 -1.11372c1.30081,0 2.35523,0.713485 2.35523,1.59353 0,0.88005 -1.05442,1.59353 -2.35523,1.59353 -1.30073,0 -2.35515,-0.713485 -2.35515,-1.59353 0,-0.88005 1.05442,-1.59353 2.35515,-1.59353zm4.91834 -1.11372c1.30081,0 2.35523,0.713485 2.35523,1.59353 0,0.88005 -1.05442,1.59353 -2.35523,1.59353 -1.30073,0 -2.35515,-0.713485 -2.35515,-1.59353 0,-0.88005 1.05442,-1.59353 2.35515,-1.59353zm4.91826 -1.11363c1.30081,0 2.35523,0.713485 2.35523,1.59353 0,0.88005 -1.05442,1.59353 -2.35523,1.59353 -1.30073,0 -2.35515,-0.713485 -2.35515,-1.59353 0,-0.88005 1.05442,-1.59353 2.35515,-1.59353zm-30.3921 12.1964c1.30073,0 2.35515,0.713485 2.35515,1.59353 0,0.88005 -1.05442,1.59353 -2.35515,1.59353 -1.30081,0 -2.35523,-0.713485 -2.35523,-1.59353 0,-0.88005 1.05442,-1.59353 2.35523,-1.59353zm4.79785 -1.05943c1.30073,0 2.35515,0.713485 2.35515,1.59353 0,0.88005 -1.05442,1.59353 -2.35515,1.59353 -1.30081,0 -2.35523,-0.713485 -2.35523,-1.59353 0,-0.88005 1.05442,-1.59353 2.35523,-1.59353zm4.79777 -1.05935c1.30073,0 2.35515,0.713485 2.35515,1.59353 0,0.88005 -1.05442,1.59353 -2.35515,1.59353 -1.30081,0 -2.35515,-0.713485 -2.35515,-1.59353 0,-0.88005 1.05433,-1.59353 2.35515,-1.59353zm4.79793 -1.05943c1.30073,0 2.35515,0.713485 2.35515,1.59353 0,0.88005 -1.05442,1.59353 -2.35515,1.59353 -1.30081,0 -2.35523,-0.713485 -2.35523,-1.59353 0,-0.88005 1.05442,-1.59353 2.35523,-1.59353zm4.79785 -1.05935c1.30073,0 2.35515,0.713485 2.35515,1.59353 0,0.88005 -1.05442,1.59353 -2.35515,1.59353 -1.30081,0 -2.35523,-0.713485 -2.35523,-1.59353 0,-0.88005 1.05442,-1.59353 2.35523,-1.59353zm4.79785 -1.05943c1.30073,0 2.35515,0.713485 2.35515,1.59353 0,0.88005 -1.05442,1.59353 -2.35515,1.59353 -1.30081,0 -2.35523,-0.713485 -2.35523,-1.59353 0,-0.88005 1.05442,-1.59353 2.35523,-1.59353zm4.79785 -1.05935c1.30073,0 2.35515,0.713485 2.35515,1.59353 0,0.88005 -1.05442,1.59353 -2.35515,1.59353 -1.30081,0 -2.35523,-0.713485 -2.35523,-1.59353 0,-0.88005 1.05442,-1.59353 2.35523,-1.59353zm4.79785 -1.05935c1.30073,0 2.35515,0.713485 2.35515,1.59353 0,0.88005 -1.05442,1.59353 -2.35515,1.59353 -1.30081,0 -2.35523,-0.713485 -2.35523,-1.59353 0,-0.88005 1.05442,-1.59353 2.35523,-1.59353z"/>
  <path class="fil5" d="M61.1912 99.2913c0.600389,0.758904 1.2007,1.51773 1.80108,2.27663 8.21637,-1.95377 16.534,-3.84758 25.4918,-5.36613 -0.369514,-0.867319 -0.738864,-1.73456 -1.10838,-2.60188 -8.72814,1.34779 -17.4564,3.47232 -26.1845,5.69137z"/>
  <path class="fil25" d="M88.7262 49.9011c5.50009,0.359576 14.9466,2.85911 15.4626,4.34612 0.515956,1.48701 1.59329,2.1007 1.38541,4.27376 -0.207795,2.17306 -0.41559,2.17306 0.0693198,3.25959 0.484828,1.08653 3.18641,5.21533 3.04786,6.30195 -0.113343,0.889002 0.0511686,3.23208 -0.871262,4.09472 -0.849743,-0.520145 0.649997,-2.98445 -0.711842,-4.03928 -1.36192,-1.05483 -2.40287,-5.37869 -2.52837,-6.12084 -0.897133,-5.30757 0.857381,-3.00235 -1.52405,-7.53336 -0.776481,-1.47732 -11.3007,-2.96556 -14.9622,-3.22805 0.0726873,-0.60121 0.492631,-1.23248 0.632502,-1.35461z"/>
  <g>
   <path class="fil26" d="M21.4058 65.6913c0.098559,0.030389 0.208863,0.0765475 0.332226,0.145128l-2.3811 1.208c-0.186441,-0.0577392 -0.334444,-0.083036 -0.43292,-0.0940417l2.4818 -1.25909z"/>
   <path class="fil26" d="M22.1761 66.1387c0.0719481,0.0584783 0.146853,0.123199 0.225289,0.195557l-2.19253 1.11232c-0.0986411,-0.0624207 -0.193997,-0.117121 -0.28541,-0.165086l2.25265 -1.14279z"/>
   <path class="fil26" d="M22.9606 66.9168c0.0619279,0.0712089 0.125416,0.146278 0.190465,0.225454l-2.04354 1.03676c-0.0739193,-0.0746584 -0.147181,-0.144635 -0.219622,-0.210588l2.0727 -1.05162z"/>
   <path class="fil26" d="M23.8184 68.0235c0.0542075,0.0767939 0.109318,0.156462 0.165333,0.238102l-1.99065 1.00998c-0.0553573,-0.0821325 -0.110715,-0.16139 -0.166072,-0.237774l1.99138 -1.01031z"/>
   <path class="fil26" d="M24.8428 69.6119c0.0486224,0.0838573 0.096095,0.167222 0.141925,0.250011l-2.08148 1.05598 -0.0635706 -0.136751c-0.0195475,-0.0417233 -0.0392593,-0.0822968 -0.058889,-0.123034l2.06202 -1.0462z"/>
   <path class="fil26" d="M25.6336 71.2028c0.0367132,0.089278 0.0716195,0.17757 0.105047,0.265206l-2.14308 1.08727c-0.0326887,-0.087389 -0.0665273,-0.176092 -0.102009,-0.266684l2.14004 -1.08579z"/>
   <path class="fil26" d="M26.1415 72.8087c0.0205331,0.0956844 0.0390951,0.190055 0.0553573,0.282864l-2.11499 1.07306c-0.0193833,-0.0904279 -0.0409841,-0.183238 -0.0645561,-0.278265l2.12419 -1.07766z"/>
   <path class="fil26" d="M26.2923 74.3824c-0.00427089,0.107922 -0.0117449,0.21297 -0.0225043,0.314896l-2.07097 1.05072c0.0103487,-0.100941 0.016755,-0.205167 0.0190547,-0.313171l2.07442 -1.05245z"/>
   <path class="fil26" d="M26.0892 75.5378c-0.0435302,0.126813 -0.092974,0.246233 -0.148085,0.357441l-2.10062 1.06575c0.0595461,-0.11786 0.113179,-0.238677 0.160076,-0.363601l2.08863 -1.05959z"/>
  </g>
  <path class="fil5" d="M20.2344 68.4023c0.320317,0.161719 0.664945,0.454439 1.00653,0.855656l-1.72651 0.979184 -0.900501 -1.05031 1.62047 -0.78453z"/>
  <path class="fil27" d="M18.108 69.1037c0.669791,-0.654185 1.97463,0.393168 2.91447,2.33946 0.93976,1.94629 1.15848,4.05431 0.488688,4.70849 -0.669873,0.654185 -1.97471,-0.393168 -2.91447,-2.33946 -0.93976,-1.94629 -1.15856,-4.05431 -0.488688,-4.70849z"/>
  <path class="fil4" d="M41.7926 46.1745c3.98449,-1.75887 8.09383,-3.47741 12.3462,-5.14938 4.25561,-1.6732 8.64264,-3.29548 13.1776,-4.8597l0.266274 0.776481c-4.54037,1.5661 -8.91606,3.18378 -13.1456,4.84672 -4.23262,1.66417 -8.33169,3.3786 -12.314,5.13657l-0.330501 -0.750691z"/>
  <path class="fil4" d="M34.6055 18.4859c1.27732,-1.00908 2.61699,-2.1554 4.0295,-3.36398 3.63338,-3.10872 7.74961,-6.63072 12.9645,-9.63579l0.407377 0.708968c-5.14133,2.96268 -9.23013,6.4612 -12.8393,9.54922 -1.40447,1.20168 -2.73657,2.34152 -4.05513,3.3832l-0.506922 -0.641619z"/>
  <path class="fil4" d="M6.87236 24.0505c1.8502,-2.23359 3.7877,-5.32777 5.54255,-8.80132 1.71854,-3.40176 3.26009,-7.16212 4.37232,-10.8311l0.782887 0.237363c-1.12743,3.71912 -2.68705,7.5249 -4.42374,10.9626 -1.78318,3.52964 -3.75543,6.67795 -5.64193,8.9554l-0.632092 -0.52302z"/>
  <path class="fil4" d="M10.2671 25.731c1.60889,-2.11844 3.25122,-5.0293 4.77444,-8.32167 1.59625,-3.4503 3.05689,-7.30914 4.20847,-11.1078l0.782887 0.237363c-1.16447,3.84126 -2.63851,7.73688 -4.24707,11.2138 -1.5445,3.33828 -3.21812,6.30088 -4.86742,8.47246l-0.651311 -0.494109z"/>
  <path class="fil4" d="M13.3901 27.3133c1.80223,-2.22168 3.43018,-5.00384 4.8827,-8.09252 1.66869,-3.54821 3.10543,-7.49886 4.30941,-11.4705l0.782887 0.237363c-1.21458,4.00667 -2.66504,7.99437 -4.35113,11.5796 -1.48019,3.14748 -3.14296,5.98746 -4.98865,8.26269l-0.635213 -0.516613z"/>
  <path class="fil4" d="M16.2068 29.1342c4.47885,-3.53843 6.96377,-11.7374 9.19178,-19.0885l0.0809827 -0.267259 0.782887 0.237363 -0.0809827 0.267259c-2.26308,7.46691 -4.78718,15.795 -9.46774,19.4928l-0.506922 -0.641619z"/>
  <path class="fil4" d="M37.503 20.4417c1.22731,-0.969574 2.5144,-2.0612 3.86368,-3.20547 3.62533,-3.07471 7.70263,-6.53274 12.9854,-9.57698l0.407377 0.708968c-5.20835,3.00137 -9.26044,6.43796 -12.8633,9.4937 -1.33301,1.13047 -2.60459,2.20887 -3.88618,3.2214l-0.506922 -0.641619z"/>
  <path class="fil4" d="M39.8935 22.2526c1.20398,-0.951177 2.51457,-2.05816 3.90622,-3.23364 3.82984,-3.23487 8.27781,-6.99186 13.5947,-10.0558l0.407377 0.708968c-5.24301,3.02141 -9.66519,6.75647 -13.4727,9.97253 -1.37424,1.16078 -2.66849,2.25388 -3.92873,3.24957l-0.506922 -0.641619z"/>
  <path class="fil4" d="M42.4433 24.2697c2.02128,-1.4604 4.28765,-3.19126 6.84837,-5.14683 3.12613,-2.38735 6.69158,-5.1102 10.8184,-8.10902l0.481296 0.664123c-4.14424,3.01147 -7.69196,5.72078 -10.8025,8.09621 -2.54693,1.94506 -4.80097,3.66648 -6.86759,5.15965l-0.478011 -0.664123z"/>
  <path class="fil4" d="M46.6846 30.9806c2.36492,-1.31133 4.81165,-3.02593 7.53311,-5.14108 2.75941,-2.14481 5.74804,-4.6556 9.20204,-7.56284l0.526141 0.625685c-3.49482,2.94158 -6.51656,5.48037 -9.22455,7.58518 -2.74602,2.13421 -5.2247,3.86976 -7.6389,5.20843l-0.39785 -0.715374z"/>
  <path class="fil4" d="M48.4231 33.9505c2.36919,-1.31371 4.88861,-3.04646 7.6812,-5.17895 2.81296,-2.14801 5.88241,-4.68418 9.34364,-7.59742l0.526141 0.625685c-3.48776,2.93566 -6.57323,5.48538 -9.37255,7.62305 -2.81977,2.15327 -5.37064,3.90671 -7.78058,5.24301l-0.39785 -0.715374z"/>
  <path class="fil4" d="M49.7992 36.3408c2.3687,-1.31346 4.94298,-3.06486 7.7915,-5.21673 2.86848,-2.16698 5.99231,-4.72106 9.45082,-7.63208l0.526141 0.625685c-3.49039,2.93788 -6.63031,5.50583 -9.48285,7.66083 -2.8725,2.17002 -5.47733,3.94113 -7.88776,5.27767l-0.39785 -0.715374z"/>
  <path class="fil4" d="M43.0426 48.5633c3.98688,-1.71542 8.09621,-3.38829 12.3462,-5.01197 4.23574,-1.61817 8.62186,-3.19077 13.1775,-4.71128l0.259867 0.776481c-4.51975,1.50853 -8.89618,3.07824 -13.1455,4.70159 -4.23516,1.61801 -8.33407,3.2867 -12.314,4.99916l-0.324095 -0.753976z"/>
  <path class="fil4" d="M44.2894 50.9538c3.57966,-1.54541 7.27669,-3.04588 11.1082,-4.49446 3.82417,-1.44586 7.77105,-2.8353 11.8559,-4.16059l0.253461 0.779602c-4.07804,1.32307 -8.01293,2.70816 -11.8206,4.14777 -3.80052,1.43683 -7.48662,2.93336 -11.0729,4.48164l-0.324095 -0.753976z"/>
  <path class="fil4" d="M45.5394 53.3427c7.13058,-2.99619 14.6475,-5.12753 22.5045,-7.35513 0.898283,-0.254611 1.80724,-0.512425 3.03381,-0.862638l0.22455 0.789293c-0.807773,0.230628 -1.92289,0.546838 -3.03693,0.862638 -7.82608,2.21881 -15.3135,4.34185 -22.4082,7.32293l-0.317689 -0.757097z"/>
  <path class="fil4" d="M46.5864 57.6148c4.10778,-1.63 8.63221,-2.73789 13.2734,-3.87427 2.97147,-0.727612 5.99132,-1.46705 8.99261,-2.36837l0.234242 0.786008c-2.99176,0.898447 -6.03748,1.64429 -9.03433,2.37806 -4.61461,1.1299 -9.11309,2.23146 -13.1643,3.83896l-0.301591 -0.760383z"/>
  <path class="fil28 str0" d="M47.2946 68.7563c0,0 0.314896,0.250915 0.874958,0.635459l-0.797671 0.535258c-0.189151,-0.191122 -0.285082,-0.301508 -0.285082,-0.301508l0.207795 -0.869208zm1.2416 0.88235c0.144471,0.0955201 0.299948,0.196297 0.466102,0.301262l-0.882021 0.688927c-0.170836,-0.150138 -0.320563,-0.287628 -0.449347,-0.409595l0.865266 -0.580595zm0.83652 0.530987c0.162376,0.0989697 0.332226,0.200403 0.510207,0.303726l-0.927358 0.847115c-0.186934,-0.146196 -0.359494,-0.286396 -0.518585,-0.419944l0.935736 -0.730897zm0.884567 0.517106c0.176831,0.0989697 0.360397,0.198843 0.549384,0.298962l-0.938117 1.00908c-0.205331,-0.143321 -0.399246,-0.284014 -0.582155,-0.421093l0.970888 -0.886949zm0.926455 0.495095c0.188823,0.0961772 0.38323,0.191944 0.581991,0.286889l-0.916517 1.17228c-0.222825,-0.138393 -0.435302,-0.276047 -0.638662,-0.412305l0.973188 -1.04686zm0.9621 0.464952c0.197693,0.0904279 0.400232,0.179377 0.606056,0.266684l-0.86543 1.334c-0.237117,-0.130344 -0.465281,-0.261428 -0.685149,-0.392511l0.944524 -1.20817zm0.990682 0.425857c0.203114,0.0818861 0.409431,0.161719 0.619115,0.238841l-0.788883 1.49325c-0.247383,-0.119421 -0.486389,-0.240648 -0.718495,-0.362861l0.888263 -1.36923zm1.00916 0.377563c0.204428,0.070634 0.411402,0.13864 0.62084,0.203442l-0.690899 1.65004c-0.252475,-0.105869 -0.498709,-0.214037 -0.737796,-0.324177l0.807855 -1.52931zm1.0159 0.321549c0.201717,0.0575749 0.405242,0.112111 0.610655,0.163033l-0.575338 1.80552c-0.253132,-0.0910849 -0.500187,-0.185045 -0.741821,-0.281386l0.706504 -1.68717zm1.01007 0.2565c0.194572,0.0432838 0.390458,0.0833645 0.587658,0.119749l-0.445405 1.96288c-0.248533,-0.0755619 -0.49222,-0.154163 -0.730979,-0.23531l0.588726 -1.84732zm0.991914 0.188658c0.182991,0.0287464 0.366968,0.0541253 0.551684,0.0759726l-0.302412 2.12271c-0.239006,-0.0602031 -0.474397,-0.123034 -0.705354,-0.188823l0.456082 -2.00986zm0.9598 0.118271c0.168125,0.0149481 0.336743,0.0267752 0.505854,0.035317l-0.14751 2.28797c-0.226029,-0.0459942 -0.449101,-0.0944524 -0.668559,-0.145703l0.310214 -2.17758zm0.915695 0.0494438c0.150795,0.00279251 0.301755,0.00386023 0.452961,0.00114986l0.0190547 2.4597c-0.210588,-0.0335101 -0.418301,-0.0698126 -0.623796,-0.108004l0.151781 -2.35285zm0.861899 -0.0141268c0.141104,-0.00739193 0.282207,-0.0176585 0.423311,-0.0302248l0.279825 2.65321c-0.230464,-0.0261181 -0.458628,-0.0548645 -0.683507,-0.0866498l-0.0196297 -2.53633zm0.830524 -0.0735907c0.115971,-0.0147017 0.232106,-0.030964 0.348078,-0.0495259 0.0336743,-0.00542075 0.0689092,-0.0112522 0.105376,-0.0176585l0.614844 2.87111c-0.263317,-0.0171657 -0.522856,-0.0388487 -0.779355,-0.0636527l-0.288942 -2.74027zm0.855903 -0.145457c0.147674,-0.0311282 0.305204,-0.0665273 0.467827,-0.10554l1.0416 3.10165c-0.117285,0.000739193 -0.235063,0.000574928 -0.35473,-0.00279251 -0.174203,-0.00492795 -0.346681,-0.0119092 -0.518092,-0.0202046l-0.636609 -2.97311zm0.866005 -0.205578c0.157119,-0.0412305 0.314978,-0.0846786 0.469552,-0.129769l1.53481 3.24506c-0.302412,0.0389308 -0.613694,0.0640634 -0.932204,0.0772046l-1.07216 -3.19249zm0.865266 -0.251325c0.160487,-0.052072 0.31235,-0.10513 0.45025,-0.158105l2.04797 3.25738c-0.30233,0.0821325 -0.614926,0.149563 -0.935736,0.204264l-1.56249 -3.30353zm0.830031 -0.323191c0.130755,-0.0653775 0.259128,-0.134451 0.385776,-0.20607l2.56648 3.17984c-0.283029,0.121556 -0.574353,0.232189 -0.876025,0.328612l-2.07623 -3.30238zm0.74141 -0.417644c0.10669,-0.0672665 0.211738,-0.136833 0.315553,-0.208206l3.05106 3.0104c-0.248533,0.148003 -0.505526,0.28615 -0.770814,0.413948l-2.5958 -3.21614zm0.653364 -0.450168c0.081229,-0.0611887 0.161308,-0.123856 0.240566,-0.187426l3.47051 2.76532c-0.206728,0.157694 -0.420272,0.308408 -0.640387,0.451893l-3.07069 -3.02979zm0.561294 -0.455918c0.0565893,-0.0491974 0.112604,-0.0991339 0.16829,-0.149399l3.81875 2.47736c-0.164347,0.15252 -0.333129,0.301098 -0.507332,0.444665l-3.47971 -2.77263zm0.475876 -0.437684c0.0932204,-0.0909207 0.184387,-0.183895 0.274651,-0.27769l4.05726 2.20756c-0.166483,0.185784 -0.338879,0.367625 -0.517106,0.544785l-3.81481 -2.47465zm0.562526 -0.586919c0.160405,-0.178474 0.315307,-0.361383 0.465527,-0.547167l4.05242 2.15458c-0.151863,0.200814 -0.309722,0.398835 -0.473412,0.593243l-4.04453 -2.20066zm0.723423 -0.874875c0.144471,-0.189398 0.283521,-0.381834 0.418054,-0.575667l4.04494 2.10079c-0.135354,0.209274 -0.276047,0.417233 -0.4229,0.622811l-4.0401 -2.14793zm0.649175 -0.917256c0.130919,-0.198679 0.256828,-0.398753 0.37781,-0.598992l4.03377 2.04576c-0.120653,0.216173 -0.246808,0.432346 -0.378877,0.647615l-4.03271 -2.09438zm0.58618 -0.952737c0.11901,-0.206645 0.232928,-0.413127 0.341753,-0.618129l4.0185 1.9895c-0.107101,0.221347 -0.220197,0.444419 -0.338879,0.668148l-4.02137 -2.03951zm0.530247 -0.981894c0.108415,-0.213955 0.211245,-0.425693 0.308818,-0.634063l3.99739 1.93126c-0.0945345,0.225207 -0.194408,0.454028 -0.301016,0.685724l-4.00519 -1.98293zm0.479243 -1.0067c0.0989697,-0.221183 0.191697,-0.43752 0.278429,-0.647368l3.97061 1.87122c-0.0822968,0.22685 -0.171,0.460845 -0.26652,0.70018l-3.98252 -1.92404zm0.432017 -1.02797c0.0906743,-0.230053 0.173875,-0.450907 0.249354,-0.659113l3.93735 1.80938c-0.0698126,0.225782 -0.147181,0.464131 -0.232681,0.713157l-3.95402 -1.86342zm0.386023 -1.04661c0.0850893,-0.247465 0.158269,-0.473083 0.219458,-0.669873l3.89793 1.74589c-0.0547824,0.214694 -0.120735,0.458874 -0.198021,0.725066l-3.91936 -1.80108zm0.338057 -1.06518c0.0903458,-0.312843 0.133465,-0.492302 0.133465,-0.492302l3.87912 1.59362c0,0 -0.0406556,0.233421 -0.134533,0.635623l-3.87805 -1.73694z"/>
  <path class="fil29" d="M47.7102 67.5974c0.254036,1.03824 -0.0461585,2.14891 0.207795,3.18715 -4.52567,0.844486 -9.05141,1.93209 -13.5771,3.54944 -0.300194,-1.61776 -0.600306,-3.23553 -0.900501,-4.85329 2.60919,-0.579445 5.21837,-1.15897 7.82756,-1.73842 1.96272,-0.024147 4.47951,-0.120735 6.44223,-0.144882z"/>
  <path class="fil30" d="M29.1456 69.3359c3.39823,-1.3574 7.40786,-2.79563 11.3604,-3.76676 2.28509,0.292638 5.15168,0.644083 7.06561,2.1007 -4.95078,1.01508 -9.89647,2.36525 -13.9235,3.76668 -1.36233,-0.77262 -3.14017,-1.328 -4.5025,-2.10062z"/>
  <path class="fil31" d="M74.1305 54.2888c-0.0352348,-0.0280893 -0.040902,-0.0795864 -0.0128127,-0.114821 0.0280893,-0.0352348 0.0795864,-0.040902 0.114821,-0.0128127 0.00131412,0.00106772 0.478504,0.359823 0.17215,1.35551 -0.0132233,0.0432017 -0.0591354,0.0674308 -0.102337,0.0542075 -0.0432017,-0.0132233 -0.0674308,-0.0591354 -0.0542075,-0.102337 0.273091,-0.887606 -0.116546,-1.17893 -0.117614,-1.17975z"/>
  <path class="fil31" d="M68.408 55.0133c-0.0352348,-0.0280893 -0.040902,-0.0795864 -0.0128127,-0.114821 0.0280893,-0.0352348 0.0795864,-0.040902 0.114821,-0.0128127 0.00131412,0.00106772 0.478504,0.359823 0.17215,1.35551 -0.0132233,0.0432017 -0.0591354,0.0674308 -0.102337,0.0542075 -0.0432017,-0.0132233 -0.0674308,-0.0591354 -0.0542075,-0.102337 0.273091,-0.887606 -0.116546,-1.17893 -0.117614,-1.17975z"/>
  <path class="fil31" d="M62.6855 55.8198c-0.0352348,-0.0280893 -0.040902,-0.0795864 -0.0128127,-0.114821 0.0280893,-0.0352348 0.0795864,-0.040902 0.114821,-0.0128127 0.00131412,0.00106772 0.478504,0.359823 0.17215,1.35551 -0.0132233,0.0432017 -0.0591354,0.0674308 -0.102337,0.0542075 -0.0432017,-0.0132233 -0.0674308,-0.0591354 -0.0542075,-0.102337 0.273091,-0.887606 -0.116546,-1.17893 -0.117614,-1.17975z"/>
  <path class="fil31" d="M56.9016 56.8138c-0.038438,-0.0239006 -0.0502651,-0.0744942 -0.0263645,-0.112932 0.0239006,-0.038438 0.0744942,-0.0502651 0.112932,-0.0263645 0.00131412,0.000821325 0.51571,0.305122 0.321056,1.32874 -0.00829538,0.0444337 -0.0511686,0.0736729 -0.0956022,0.0653775 -0.0444337,-0.00829538 -0.0736729,-0.0511686 -0.0653775,-0.0956022 0.173382,-0.912081 -0.245576,-1.15856 -0.246644,-1.15922z"/>
  <path class="fil31" d="M51.3431 58.4151c-0.0399985,-0.0210259 -0.0553573,-0.0707161 -0.0343314,-0.110715 0.0210259,-0.0399985 0.0707161,-0.0553573 0.110715,-0.0343314 0.00147839,0.000739193 0.529262,0.286642 0.371567,1.31749 -0.00665273,0.0447622 -0.0485403,0.075644 -0.0933025,0.0689913 -0.0447622,-0.00665273 -0.075644,-0.0485403 -0.0689913,-0.0933025 0.1402,-0.916927 -0.284425,-1.14756 -0.285657,-1.14813z"/>
  <path class="fil31" d="M45.4123 60.3812c-0.0399985,-0.0210259 -0.0553573,-0.0707161 -0.0343314,-0.110715 0.0210259,-0.0399985 0.0707161,-0.0553573 0.110715,-0.0343314 0.00147839,0.000739193 0.53805,0.262167 0.427089,1.29794 -0.00468155,0.0449265 -0.0451729,0.0775331 -0.0900994,0.0728515 -0.0449265,-0.00468155 -0.0775331,-0.0451729 -0.0728515,-0.0900994 0.0988875,-0.923252 -0.339289,-1.13507 -0.340521,-1.13565z"/>
  <path class="fil31" d="M39.7599 62.1599c-0.040902,-0.0193011 -0.0583962,-0.06817 -0.0390951,-0.109072 0.0193011,-0.040902 0.06817,-0.0583962 0.109072,-0.0390951 0.00147839,0.00065706 0.542978,0.257403 0.441462,1.29507 -0.00418876,0.0449265 -0.0442694,0.0779437 -0.0891959,0.073755 -0.0449265,-0.00418876 -0.0779437,-0.0442694 -0.073755,-0.0891959 0.0902636,-0.923252 -0.347338,-1.13096 -0.348488,-1.13146z"/>
  <path class="fil31" d="M34.1177 64.472c-0.0399985,-0.0210259 -0.0553573,-0.0707161 -0.0343314,-0.110715 0.0210259,-0.0399985 0.0707161,-0.0553573 0.110715,-0.0343314 0.00147839,0.000739193 0.536325,0.267259 0.415919,1.30205 -0.00509222,0.0449265 -0.0458299,0.0772867 -0.0907564,0.0721945 -0.0449265,-0.00509222 -0.0772867,-0.0458299 -0.0721945,-0.0907564 0.107347,-0.922184 -0.328119,-1.13786 -0.329351,-1.13844z"/>
  <polygon class="fil32" points="58.8329,80.2574 58.87,81.9235 69.7062,80.185 69.4441,78.5914 "/>
 </g>
</svg>
