<?xml version="1.0" encoding="UTF-8" standalone="no"?>
<!-- Creator: CorelDRAW X5 -->

<svg
   xml:space="preserve"
   width="111.19805mm"
   height="98.424736mm"
   style="clip-rule:evenodd;fill-rule:evenodd;image-rendering:optimizeQuality;shape-rendering:geometricPrecision;text-rendering:geometricPrecision"
   viewBox="0 0 91.330062 80.838714"
   version="1.1"
   id="svg231"
   sodipodi:docname="typewriter_edited.svg"
   inkscape:version="1.2 (dc2aedaf03, 2022-05-15)"
   xmlns:inkscape="http://www.inkscape.org/namespaces/inkscape"
   xmlns:sodipodi="http://sodipodi.sourceforge.net/DTD/sodipodi-0.dtd"
   xmlns:xlink="http://www.w3.org/1999/xlink"
   xmlns="http://www.w3.org/2000/svg"
   xmlns:svg="http://www.w3.org/2000/svg"><sodipodi:namedview
   id="namedview233"
   pagecolor="#ffffff"
   bordercolor="#666666"
   borderopacity="1.0"
   inkscape:showpageshadow="2"
   inkscape:pageopacity="0.0"
   inkscape:pagecheckerboard="0"
   inkscape:deskcolor="#d1d1d1"
   inkscape:document-units="mm"
   showgrid="false"
   inkscape:zoom="0.9058378"
   inkscape:cx="149.0333"
   inkscape:cy="141.85763"
   inkscape:window-width="1366"
   inkscape:window-height="709"
   inkscape:window-x="0"
   inkscape:window-y="0"
   inkscape:window-maximized="1"
   inkscape:current-layer="Layer_x0020_1" />
 <defs
   id="defs50">
  <style
   type="text/css"
   id="style2">
   <![CDATA[
    .str0 {stroke:black;stroke-width:0.062585}
    .str1 {stroke:gray;stroke-width:0.062585}
    .fil0 {fill:black}
    .fil10 {fill:#211515}
    .fil26 {fill:#401313}
    .fil7 {fill:#4A1313}
    .fil16 {fill:#4A5F80}
    .fil15 {fill:#4D4D4D}
    .fil23 {fill:#5E1818}
    .fil1 {fill:gray}
    .fil19 {fill:#963030}
    .fil32 {fill:#999999}
    .fil8 {fill:#9E1414}
    .fil14 {fill:#9EB4C9}
    .fil17 {fill:#B3B3B3}
    .fil13 {fill:#CC3300}
    .fil5 {fill:#CCCCCC}
    .fil25 {fill:#E6E6E6}
    .fil3 {fill:#666666;fill-rule:nonzero}
    .fil31 {fill:gray;fill-rule:nonzero}
    .fil4 {fill:#CCCCCC;fill-rule:nonzero}
    .fil20 {fill:url(#id0)}
    .fil28 {fill:url(#id1)}
    .fil27 {fill:url(#id2)}
    .fil9 {fill:url(#id3)}
    .fil18 {fill:url(#id4)}
    .fil12 {fill:url(#id5)}
    .fil6 {fill:url(#id6)}
    .fil30 {fill:url(#id7)}
    .fil22 {fill:url(#id8)}
    .fil2 {fill:url(#id9)}
    .fil11 {fill:url(#id10)}
    .fil29 {fill:url(#id11)}
    .fil21 {fill:url(#id12)}
    .fil24 {fill:url(#id13)}
   ]]>
  </style>
  <linearGradient
   id="id0"
   gradientUnits="userSpaceOnUse"
   x1="20.756901"
   y1="67.756798"
   x2="20.756901"
   y2="76.514198">
   <stop
   offset="0"
   style="stop-color:#999999"
   id="stop4" />
   <stop
   offset="1"
   style="stop-color:#333333"
   id="stop6" />
  </linearGradient>
  <linearGradient
   id="id1"
   gradientUnits="userSpaceOnUse"
   x1="47.0868"
   y1="68.902901"
   x2="75.280098"
   y2="68.902901">
   <stop
   offset="0"
   style="stop-color:#6699FF"
   id="stop9" />
   <stop
   offset="1"
   style="stop-color:#E6E6E6"
   id="stop11" />
  </linearGradient>
  <linearGradient
   id="id2"
   gradientUnits="userSpaceOnUse"
   x1="21.694799"
   y1="76.4608"
   x2="17.9244"
   y2="68.794403">
   <stop
   offset="0"
   style="stop-color:#CCCCCC"
   id="stop14" />
   <stop
   offset="1"
   style="stop-color:#FEFEFE"
   id="stop16" />
  </linearGradient>
  <linearGradient
   id="id3"
   gradientUnits="userSpaceOnUse"
   xlink:href="#id2"
   x1="44.821701"
   y1="73.743599"
   x2="95.762802"
   y2="112.807">
  </linearGradient>
  <linearGradient
   id="id4"
   gradientUnits="userSpaceOnUse"
   x1="31.5989"
   y1="70.553398"
   x2="26.125799"
   y2="65.0047">
   <stop
   offset="0"
   style="stop-color:#F24646"
   id="stop20" />
   <stop
   offset="1"
   style="stop-color:#FEFEFE"
   id="stop22" />
  </linearGradient>
  <linearGradient
   id="id5"
   gradientUnits="userSpaceOnUse"
   x1="47.007999"
   y1="27.677"
   x2="63.047901"
   y2="76.741302">
   <stop
   offset="0"
   style="stop-color:white"
   id="stop25" />
   <stop
   offset="0.831373"
   style="stop-color:#F3F3F3"
   id="stop27" />
   <stop
   offset="1"
   style="stop-color:#E6E6E6"
   id="stop29" />
  </linearGradient>
  <linearGradient
   id="id6"
   gradientUnits="userSpaceOnUse"
   xlink:href="#id5"
   x1="40.677399"
   y1="-3.65711"
   x2="61.5298"
   y2="52.383701">
  </linearGradient>
  <linearGradient
   id="id7"
   gradientUnits="userSpaceOnUse"
   xlink:href="#id4"
   x1="44.825401"
   y1="73.436203"
   x2="31.891899"
   y2="63.569401">
  </linearGradient>
  <linearGradient
   id="id8"
   gradientUnits="userSpaceOnUse"
   xlink:href="#id4"
   x1="87.312302"
   y1="64.603996"
   x2="73.153503"
   y2="55.9585">
  </linearGradient>
  <linearGradient
   id="id9"
   gradientUnits="userSpaceOnUse"
   xlink:href="#id5"
   x1="13.7874"
   y1="-5.06076"
   x2="34.715302"
   y2="48.132">
  </linearGradient>
  <linearGradient
   id="id10"
   gradientUnits="userSpaceOnUse"
   x1="68.482201"
   y1="93.394402"
   x2="52.914398"
   y2="60.198898">
   <stop
   offset="0"
   style="stop-color:#B80606"
   id="stop36" />
   <stop
   offset="1"
   style="stop-color:#FF2E2E"
   id="stop38" />
  </linearGradient>
  <linearGradient
   id="id11"
   gradientUnits="userSpaceOnUse"
   xlink:href="#id10"
   x1="42.9408"
   y1="75.354897"
   x2="38.463699"
   y2="66.576302">
  </linearGradient>
  <linearGradient
   id="id12"
   gradientUnits="userSpaceOnUse"
   xlink:href="#id10"
   x1="85.419502"
   y1="67.018402"
   x2="81.327003"
   y2="59.194099">
  </linearGradient>
  <linearGradient
   id="id13"
   gradientUnits="userSpaceOnUse"
   x1="57.0163"
   y1="76.0355"
   x2="82.325302"
   y2="100.371">
   <stop
   offset="0"
   style="stop-color:#B3B3B3"
   id="stop43" />
   <stop
   offset="0.431373"
   style="stop-color:#D4D4D4"
   id="stop45" />
   <stop
   offset="1"
   style="stop-color:whitesmoke"
   id="stop47" />
  </linearGradient>
 <linearGradient
   inkscape:collect="always"
   xlink:href="#id10"
   id="linearGradient393"
   gradientUnits="userSpaceOnUse"
   x1="68.482201"
   y1="93.394402"
   x2="52.914398"
   y2="60.198898" /><linearGradient
   inkscape:collect="always"
   xlink:href="#id5"
   id="linearGradient395"
   gradientUnits="userSpaceOnUse"
   x1="47.007999"
   y1="27.677"
   x2="63.047901"
   y2="76.741302" /><linearGradient
   inkscape:collect="always"
   xlink:href="#id4"
   id="linearGradient397"
   gradientUnits="userSpaceOnUse"
   x1="31.5989"
   y1="70.553398"
   x2="26.125799"
   y2="65.0047" /><linearGradient
   inkscape:collect="always"
   xlink:href="#id2"
   id="linearGradient399"
   gradientUnits="userSpaceOnUse"
   x1="21.694799"
   y1="76.4608"
   x2="17.9244"
   y2="68.794403" /></defs>
 <g
   id="Layer_x0020_1"
   inkscape:label="Layer 1"
   inkscape:groupmode="layer"
   transform="translate(-17.366473,-32.393038)">
  <metadata
   id="CorelCorpID_0Corel-Layer" />
  <path
   class="fil0"
   d="m 73.6098,50.3634 c 0,0 -0.651804,-3.1129 0.289763,-3.41137 0.941567,-0.29847 1.95582,-0.628232 2.57149,0.02916 0.615665,0.657306 1.08653,4.0116 1.08653,4.0116 l -3.94778,-0.629381 z"
   id="path53" />
  <polygon
   class="fil1"
   points="40.5046,75.4911 36.2098,65.0603 52.4193,59.4102 70.0141,56.0782 80.4048,55.3538 81.3746,69.4065 "
   id="polygon55" />
  
  
  
  
  
  <path
   class="fil0 str0"
   d="m 28.6252,62.0551 -0.761943,-2.86117 0.400889,-0.2519 0.707407,2.67851 2.28591,-1.12275 -0.380931,-2.46291 0.311693,-0.362122 0.658128,2.39038 4.95284,-1.84716 -0.588808,-2.20928 0.381013,-0.217323 0.762025,1.88338 3.25573,-0.83307 -0.554148,-2.28172 3.74064,-0.905429 1.66244,3.94778 c 0,0 -4.43327,1.8833 -5.43775,2.13684 -1.00448,0.253543 -6.99638,1.84716 -7.20425,1.88338 -0.207795,0.03622 -4.19089,0.434563 -4.19089,0.434563 z"
   id="path74" />
  <path
   class="fil0 str0"
   d="m 26.6164,59.194 c 0.103898,0.193176 0.207795,0.386269 0.311693,0.579445 2.86856,-0.94822 5.77178,-2.11384 8.64018,-3.06198 2.71924,-0.898858 5.40415,-1.58048 8.12348,-2.47942 -0.08082,-0.253543 -0.161637,-0.507004 -0.242455,-0.760547 -5.70755,1.70573 -11.3103,3.63042 -16.8329,5.7225 z"
   id="path76" />
  <path
   class="fil0 str0"
   d="m 27.4823,61.367 c 6.60083,-3.00515 12.8298,-5.16811 18.8764,-6.91769 0.542567,2.41453 1.08522,4.82914 1.62778,7.24368 l -8.94579,2.97558 0.385612,3.74023 -10.5226,3.16095 -5.26609,1.02493 c -0.40557,-2.32813 2.96843,-8.162 3.84462,-11.2277 z"
   id="path78" />
  <path
   class="fil7"
   d="m 23.9151,74.6956 1.10838,4.20132 1.31617,-0.579527 3.53277,9.56162 -1.03906,0.86929 4.087,7.09871 c 0,0 4.57199,2.68015 8.17407,5.939817 3.60209,3.25967 12.1223,11.445 12.1223,11.445 l 2.9787,-6.59171 -0.415673,-8.040527 -19.3959,-26.0047 -4.64114,-2.82503 -2.53954,-0.434563 0.3089,1.77636 -0.743135,0.384709 -0.594804,-0.31391 -0.363847,-1.91738 -5.14207,-0.21954 1.24685,5.65006 z"
   id="path80" />
  <path
   class="fil8"
   d="m 102.884,97.3683 c -1.52397,2.1007 -1.93964,2.46283 -3.46361,4.56353 -16.9172,1.6709 -28.5192,4.4777 -46.3424,11.3 0.300194,-3.09065 0.531151,-6.18121 0.831345,-9.27186 4.91826,-2.99406 9.83644,-5.98803 14.7547,-8.98209 5.93424,0 11.8685,0 17.8027,0 5.6572,0.651886 10.7601,1.7385 16.417295,2.39038 z"
   id="path82" />
  <path
   class="fil9 str1"
   d="m 39.9169,89.4726 c -0.55423,0 -1.10838,0 -1.66253,0 -0.184716,0.338057 -0.369432,0.676033 -0.554148,1.01409 7.36573,3.75419 7.80448,10.9945 16.1401,17.0226 3.40817,-0.93984 6.77905,-1.89595 10.1402,-2.76696 0.923744,-0.23933 1.48036,0.39284 2.394,0.15901 8.43632,-2.15918 16.2811,-3.30583 24.4601,-4.82931 0.555216,-0.103406 1.4728,-1.362411 2.02785,-1.458261 3.33819,-0.576817 6.67442,-1.01327 10.021798,-1.24562 -6.977898,-6.21521 -7.361368,-13.1975 -16.417298,-18.2539 -0.461831,-0.02415 -0.785022,-0.04829 -1.24685,-0.07244 -1.89332,2.2938 -3.7868,4.58768 -5.6802,6.88147 -13.6695,1.328 -25.9535,2.22136 -39.623,3.54936 z"
   id="path84"
   style="fill:url(#id3)" />
  <path
   class="fil10"
   d="m 39.5013,89.5452 c 7.24557,4.27615 8.50342,11.4657 14.6855,15.3566 2.75785,-0.73607 5.48341,-1.44635 8.19822,-2.12255 0.808677,-0.20147 1.97898,0.32434 2.78618,0.12911 8.25111,-1.99541 15.352,-3.271168 24.0904,-4.462258 0.643262,-0.08763 2.08814,-1.18361 2.74101,-1.25876 2.66536,-0.307011 5.38691,-0.562772 8.18023,-0.760629 -6.6837,-4.96696 -7.12409,-12.4418 -14.8239,-16.588 -2.72466,-1.20727 -4.34111,-2.41453 -7.06578,-3.6218 -7.61984,1.35215 -15.2396,2.70429 -22.8594,4.05644 -3.64824,1.44874 -7.29657,2.89747 -10.9448,4.34621 -1.8934,1.59362 -3.0941,3.33203 -4.98758,4.92565 z"
   id="path86" />
  <path
   class="fil11"
   d="m 34.7909,74.1165 c 1.13138,5.07053 2.12428,10.7207 3.25565,15.7912 15.1242,-3.59773 33.0886,-7.5575 48.5591,-10.5757 -0.29888,-5.38452 -0.855739,-10.1895 -0.06924,-15.6464 -5.28055,0.663713 -10.7983,1.40192 -16.2755,2.1274 -3.88733,0.514807 -3.7367,6.96311 -7.48449,7.43422 -1.92198,0.366557 -7.86181,-5.20654 -9.78371,-4.84007 -5.42066,1.0338 -10.8415,2.06777 -16.2622,3.10165 -0.646629,0.869208 -1.29309,1.7385 -1.93964,2.60771 z"
   id="path88"
   style="fill:url(#linearGradient393)" />
  <path
   class="fil8"
   d="m 34.7909,74.1165 c 0.102091,0.457478 0.203032,0.91972 0.302987,1.38574 7.43734,-1.9366 14.8748,-3.61137 22.3122,-4.99152 -1.79969,-1.18681 -3.53047,-2.27195 -4.41331,-2.10358 -5.42066,1.0338 -10.8415,2.06777 -16.2622,3.10165 -0.646629,0.869208 -1.29309,1.7385 -1.93964,2.60771 z m 51.4334,-7.4086 c 0.06349,-0.989861 0.163936,-1.99451 0.312104,-3.02231 -5.28055,0.663713 -10.7983,1.40192 -16.2755,2.1274 -1.7114,0.226686 -2.64015,1.60347 -3.46353,3.11389 6.47557,-0.980662 12.9511,-1.72758 19.4269,-2.21897 z"
   id="path90" />
  <polygon
   class="fil0"
   points="83.1079,54.7412 80.7439,56.44 69.6,55.5379 69.4615,50.8296 71.609,49.743 82.9001,49.0187 "
   id="polygon92" />
  <g
   id="g98">
   <path
   class="fil12"
   d="m 73.4196,59.3045 c 0,0 0.475465,-20.1374 -4.99694,-26.8016 -10.187,1.42582 -31.9938,11.9556 -31.7955,12.1693 5.5855,4.52098 6.68633,15.1575 8.35994,22.6001 l 19.5132,4.64287 8.91926,-12.6107 z"
   id="path94"
   style="fill:url(#linearGradient395)" />
   <path
   id="path96"
   class="fil3"
   d="m 68.4368,32.605 -0.02842,-0.204181 0.09338,0.03655 0.501255,0.670366 0.466184,0.74256 0.432756,0.808512 0.400724,0.868141 0.370007,0.92202 0.340686,0.969656 0.312432,1.01113 0.285575,1.04653 0.260032,1.07602 0.235638,1.09926 0.212395,1.11635 0.190383,1.12752 0.169686,1.13228 0.149974,1.13113 0.131576,1.12374 0.114328,1.11027 0.09823,1.09056 0.08345,1.06477 0.06965,1.03298 0.05716,0.994789 0.04583,0.950684 0.03565,0.900254 0.02669,0.843747 0.01889,0.781162 0.01224,0.712253 0.0068,0.637266 0.0025,0.556283 -5.75e-4,0.468977 -0.0025,0.37551 -0.0032,0.276047 -0.0028,0.170179 -0.0012,0.05864 -0.205331,-0.0049 0.0012,-0.05733 0.0028,-0.169357 0.0032,-0.275062 0.0025,-0.374524 5.75e-4,-0.467827 -0.0025,-0.554969 -0.0068,-0.635952 -0.01224,-0.710939 -0.01873,-0.779684 -0.02669,-0.842105 -0.03564,-0.898612 -0.04567,-0.948713 -0.057,-0.992818 -0.06965,-1.03085 -0.08312,-1.06247 -0.09807,-1.08809 -0.114,-1.10747 -0.131248,-1.12078 -0.149645,-1.12784 -0.169029,-1.12866 -0.189726,-1.12341 -0.211573,-1.11191 -0.234488,-1.09433 -0.258717,-1.07043 -0.283932,-1.04045 -0.310297,-1.00407 -0.337729,-0.961607 -0.366393,-0.912985 -0.395961,-0.857956 -0.426514,-0.79685 -0.457971,-0.729419 -0.490413,-0.656074 0.09338,0.03655 z m -0.02842,-0.204181 0.05684,-0.008 0.03655,0.04452 z m -31.7168,12.1912 -0.128948,0.160487 -0.0106,-0.01002 0.05922,-0.203032 0.176338,-0.112275 0.2873,-0.161637 0.396371,-0.210588 0.500105,-0.256418 0.598007,-0.298962 0.689831,-0.337975 0.775577,-0.373539 0.855328,-0.405406 0.928672,-0.433906 0.996103,-0.458792 1.05729,-0.480147 1.11232,-0.497805 1.16127,-0.512178 1.20398,-0.522773 1.24069,-0.529837 1.27116,-0.533451 1.29539,-0.533533 1.31355,-0.529837 1.32562,-0.522856 1.33145,-0.512178 1.3312,-0.497969 1.3248,-0.480229 1.31223,-0.458792 1.2935,-0.43407 1.26878,-0.405652 1.23782,-0.373621 1.20078,-0.33814 1.15774,-0.299044 1.10846,-0.256418 1.05335,-0.210177 0.992079,-0.160405 0.02842,0.204181 -0.98403,0.159091 -1.04661,0.208863 -1.10304,0.255104 -1.15298,0.297895 -1.19683,0.33699 -1.23437,0.372635 -1.26583,0.404667 -1.29088,0.433085 -1.30993,0.458135 -1.32283,0.479407 -1.32923,0.497312 -1.32981,0.511521 -1.32398,0.522198 -1.31223,0.529344 -1.29408,0.532876 -1.26985,0.532958 -1.23954,0.529344 -1.20299,0.522281 -1.16012,0.511686 -1.11133,0.497477 -1.05631,0.479654 -0.995117,0.458299 -0.927687,0.433413 -0.854178,0.404913 -0.774427,0.373046 -0.688517,0.337318 -0.596364,0.298141 -0.497805,0.255268 -0.393086,0.208781 -0.281222,0.158187 -0.158926,0.100777 -0.03047,-0.103651 -0.0106,-0.01002 z m -0.128948,0.160487 -0.0052,-0.0042 -0.0054,-0.0058 z m 8.44807,22.4195 -0.04731,0.200568 -0.07647,-0.07761 L 44.73129,66.587223 44.578277,65.862732 44.42666,65.123047 44.2757,64.369974 44.124494,63.605156 43.972056,62.8304 43.817318,62.047184 43.659624,61.257398 43.497823,60.462602 43.331176,59.664767 43.158533,58.865289 42.979156,58.066058 42.792058,57.268633 42.596336,56.474822 42.391087,55.686432 42.175325,54.904941 41.948229,54.132321 41.708813,53.370131 41.456256,52.620015 41.18949,51.883861 40.907776,51.163148 40.610128,50.459929 40.295643,49.775601 39.963581,49.112135 39.612793,48.471009 39.24254,47.853947 38.851918,47.262839 38.440106,46.699081 38.0062,46.164563 37.549215,45.660926 37.068329,45.18965 l -0.50569,-0.437191 0.128948,-0.160487 0.515546,0.445733 0.489756,0.479982 0.46487,0.512343 0.440805,0.54306 0.417726,0.571807 0.395714,0.598992 0.374687,0.624289 0.354566,0.648025 0.335347,0.670037 0.317278,0.690242 0.299948,0.708804 0.283687,0.725641 0.268409,0.740917 0.254035,0.754223 0.240567,0.766132 0.228245,0.77607 0.216583,0.784612 0.205906,0.791182 0.196379,0.79611 0.187591,0.79956 0.179706,0.801038 0.172971,0.800956 0.166975,0.799149 0.161965,0.795618 0.15786,0.790443 0.154738,0.78338 0.152437,0.774756 0.151207,0.764489 0.150795,0.752416 0.151288,0.738535 0.152849,0.723177 0.155148,0.705929 -0.07647,-0.07761 z m -0.04731,0.200568 -0.06234,-0.01487 -0.01413,-0.06275 z m 19.5132,4.64287 -19.5132,-4.64287 0.04731,-0.200568 19.5132,4.64287 0.06004,0.159912 z m 0.107347,-0.04066 -0.04008,0.05667 -0.06727,-0.01602 z m 8.91926,-12.6107 -8.91926,12.6107 -0.167386,-0.119256 8.91926,-12.6107 0.186359,0.06209 z m 0.01897,-0.05716 -7.4e-4,0.03137 -0.01823,0.02579 z" />
  </g>
  <path
   class="fil4"
   d="m 48.4697,62.9027 c 3.71165,-1.19158 7.76349,-1.9311 11.9343,-2.64155 l 0.06866,0.831427 c -4.10014,0.69944 -8.07954,1.43067 -11.7013,2.59333 l -0.301591,-0.783216 z"
   id="path100" />
  <path
   class="fil13"
   d="m 85.8096,48.8736 -8.65882,0.507086 c -1.01417,0.108661 -2.45445,3.984 -0.0331,3.25959 2.42135,-0.724409 8.27625,-0.796767 8.27625,-0.796767 l 0.415673,-2.96991 z"
   id="path102" />
  <path
   class="fil14"
   d="m 85.1866,48.4027 4.36403,-0.253543 c 0,0 3.22124,3.65802 -0.380931,5.3603 -1.38541,-0.144882 -2.7709,-0.289763 -4.15632,-0.434645 -1.62138,-1.29925 -1.34574,-2.89008 0.173217,-4.67211 z"
   id="path104" />
  <path
   class="fil15"
   d="m 79.0209,53.3649 c 0,0 1.87032,-2.10062 2.14735,0.434645 0.277115,2.53527 0.138558,5.57754 0.138558,5.57754 l -1.73168,0.217323 -0.55423,-6.2295 z"
   id="path106" />
  <path
   class="fil16"
   d="m 37.2819,67.0551 c 0,0 13.0608,-5.8673 22.551,-7.38848 9.49025,-1.52118 20.0067,-2.71637 20.0067,-2.71637 0.412223,-0.521295 0.375838,-1.13244 -0.177899,-1.84708 l -1.33342,-1.08661 -8.58958,1.37629 -12.9537,2.1007 -16.4172,4.85321 -8.79746,3.47692 5.71158,1.23141 z"
   id="path108" />
  <path
   class="fil5"
   d="m 79.5059,53.5096 c -8.4778,0.805391 -15.7764,1.31149 -24.2078,3.41047 -11.0126,2.74167 -25.8304,9.01798 -25.5857,9.48318 l 2.0658,0.651886 c 4.42267,-1.81751 16.7163,-6.50038 24.1979,-8.29013 6.5398,-1.56397 17.2427,-3.03923 23.8762,-3.6618 0.43867,-0.422654 0.201964,-1.56939 -0.346435,-1.59362 z"
   id="path110" />
  <path
   class="fil0"
   d="m 42.8615,67.2724 c 2.76031,-1.54844 6.1987,-2.89427 10.2522,-4.05644 2.2524,3.47379 3.6089,6.80887 8.93593,5.28786 4.71153,-1.34533 4.75983,-5.71905 4.43335,-8.47501 4.45035,-0.929904 9.12689,-1.70195 14.1313,-2.24558 l -5.68028,13.3284 -4.77001,4.5563 -4.74898,2.38521 -6.69043,0.664206 c 0,0 -7.689,-2.60762 -7.89688,-3.25959 -0.207795,-0.651968 -7.9662,-8.18533 -7.9662,-8.18533 z"
   id="path112" />
  <ellipse
   class="fil0 str0"
   transform="matrix(0.91557,0.288742,-0.276125,0.957407,88.8926,50.9742)"
   rx="1.15897"
   ry="1.66606"
   id="ellipse114"
   cx="0"
   cy="0" />
  <path
   class="fil14"
   d="m 88.7262,49.9011 c 5.50009,0.359576 14.9466,2.85911 15.4626,4.34612 0.51596,1.48701 1.59329,2.1007 1.38541,4.27376 -0.2078,2.17306 -0.41559,2.17306 0.0693,3.25959 0.48483,1.08653 3.18641,5.21533 3.04786,6.30195 -0.13856,1.08661 0.13864,4.34621 -1.66244,4.41865 -1.80108,0.07244 -2.7709,-0.869208 -3.04794,-2.31794 -0.27712,-1.44874 0.76194,-4.1288 0.0692,-4.92565 -0.69271,-0.79685 -2.42447,-3.33212 -2.77082,-4.70841 -0.34644,-1.37629 -0.76203,-5.21541 -0.76203,-5.21541 0,0 -6.823237,-3.36825 -12.053198,-3.15093 -0.896147,-0.597596 0.03901,-2.08699 0.262003,-2.28172 z"
   id="path116" />
  <polygon
   class="fil17"
   points="24.8846,68.6469 25.7504,68.3209 28.8677,67.0533 25.5774,62.7433 22.9412,64.1378 "
   id="polygon118" />
  <polygon
   class="fil16"
   points="22.9797,64.0834 26.1661,69.9508 23.3606,69.5524 22.7372,67.5242 22.4255,64.518 "
   id="polygon120" />
  <path
   class="fil18"
   d="m 33.0989,66.7468 c -1.69875,0.832988 -4.44772,1.62984 -5.60316,2.82503 L 24.6257,68.630181 c 0,0 3.07447,-2.02818 5.56817,-2.64393 0.473412,0.434645 2.43161,0.325902 2.90503,0.760547 z"
   id="path122"
   style="fill:url(#linearGradient397)" />
  <polygon
   class="fil19"
   points="27.7632,69.2209 28.6449,71.5128 26.0441,71.2349 24.7217,68.6663 "
   id="polygon124" />
  <path
   class="fil17"
   d="m 23.6723,58.7231 1.73185,-1.08653 c 0,0 0.900583,-0.217405 1.45473,0.688106 0.554066,0.905511 2.11269,3.22345 2.11269,3.22345 l -0.623468,0.434645 0.381013,0.651886 -0.900501,0.470866 -1.90498,-0.905511 -2.25133,-3.47692 z"
   id="path126" />
  <path
   class="fil16"
   d="m 28.0711,63.2142 -2.68508,-3.6944 c -0.294445,-0.40516 -2.92581,-2.13963 -1.71369,1.0867 1.21219,3.22633 2.56311,4.3099 2.56311,4.3099 z"
   id="path128" />
  <polygon
   class="fil1"
   points="29.699,65.2786 27.4823,66.5462 26.9281,64.7354 28.9023,63.3228 "
   id="polygon130" />
  <path
   class="fil19"
   d="m 20.8158,65.6598 c 0.346353,-0.03614 1.32866,-0.369268 3.74064,3.477 2.4119,3.84627 1.96716,6.63368 0.762025,7.53344 -2.12009,1.58278 -2.15581,1.4475 -3.67141,0.832988 -0.456739,-0.185127 -2.56303,-2.96983 -3.11726,-3.69424 -0.554148,-0.724409 -1.38533,-4.41865 -1.1083,-5.65006 0.277033,-1.23141 1.17762,-1.44874 1.17762,-1.44874 l 2.21667,-1.05039 z"
   id="path132" />
  <path
   class="fil20"
   d="m 19.1815,68.469 c 0.729337,-0.712253 2.14998,0.428157 3.17327,2.54718 1.02312,2.1191 1.26131,4.41429 0.532054,5.12655 -0.224632,0.219376 -1.60594,0.371567 -1.92979,0.265124 -0.727858,-0.239416 -0.535504,-1.34599 -1.24349,-2.8123 -0.685971,-1.42065 -1.8157,-3.24694 -1.74088,-4.29586 0.03663,-0.515381 0.968589,-0.596036 1.20883,-0.830688 z"
   id="path134"
   style="fill:url(#id0)" />
  <path
   class="fil21"
   d="m 76.8733,61.6575 c 0.02308,1.47288 0.04616,2.94576 0.06924,4.41865 4.57848,-0.958568 8.40068,-1.02707 12.6073,-1.01409 -0.04616,-1.25556 0.323274,-2.51112 0.277115,-3.76668 -2.44755,-0.386351 -4.8951,-0.77262 -7.34273,-1.15897 -1.87032,0.507004 -3.74064,1.01409 -5.61096,1.52109 z"
   id="path136"
   style="fill:url(#id12)" />
  <path
   class="fil22"
   d="m 70.5696,60.571 c 3.18239,-1.35428 7.92414,-2.36402 12.9537,-2.75259 2.77608,1.06953 4.70627,2.28649 6.37299,3.54944 -4.41027,0.233338 -8.56708,0.562115 -12.9773,1.37629 -1.73176,-1.01417 -4.34054,-1.66606 -6.34942,-2.17314 z"
   id="path138"
   style="fill:url(#id8)" />
  <path
   class="fil23"
   d="m 47.3639,69.6255 c 0,0 5.888,9.27186 16.0015,7.968 C 73.479,76.28965 75.9791,65.7139 75.9791,65.7139 l 1.00645,0.35818 0.287546,-0.01404 c 0,0 -2.06235,10.3042 -13.0764,12.7668 -11.0141,2.46266 -18.149,-8.04044 -18.149,-8.04044 l 1.31617,-1.15897 z"
   id="path140" />
  <polygon
   class="fil17"
   points="30.3602,64.9526 29.4629,65.4053 28.5314,63.6125 29.4912,63.0331 "
   id="polygon142" />
  <path
   class="fil24"
   d="m 47.8471,85.6319 c 1.30073,0 2.35515,0.713485 2.35515,1.59353 0,0.88005 -1.05442,1.59353 -2.35515,1.59353 -1.30081,0 -2.35523,-0.713485 -2.35523,-1.59353 0,-0.88005 1.05442,-1.59353 2.35523,-1.59353 z m 1.1083,5.07061 c 1.30073,0 2.35523,0.713485 2.35523,1.59353 0,0.88005 -1.0545,1.59353 -2.35523,1.59353 -1.30073,0 -2.35523,-0.713485 -2.35523,-1.59353 0,-0.88005 1.0545,-1.59353 2.35523,-1.59353 z m 4.15632,4.34612 c 1.30073,0 2.35515,0.713485 2.35515,1.59353 0,0.88005 -1.05442,1.59353 -2.35515,1.59353 -1.30081,0 -2.35523,-0.713485 -2.35523,-1.59353 0,-0.88005 1.05442,-1.59353 2.35523,-1.59353 z m 0.565811,-10.6603 c 1.30073,0 2.35515,0.713485 2.35515,1.59353 0,0.88005 -1.05442,1.59353 -2.35515,1.59353 -1.30081,0 -2.35523,-0.713485 -2.35523,-1.59353 0,-0.88005 1.05442,-1.59353 2.35523,-1.59353 z m 5.83026,-1.24349 c 1.30081,0 2.35523,0.713485 2.35523,1.59353 0,0.88005 -1.05442,1.59353 -2.35523,1.59353 -1.30073,0 -2.35515,-0.713485 -2.35515,-1.59353 0,-0.88005 1.05442,-1.59353 2.35515,-1.59353 z m 5.83034,-1.24349 c 1.30073,0 2.35515,0.713485 2.35515,1.59353 0,0.88005 -1.05442,1.59353 -2.35515,1.59353 -1.30081,0 -2.35523,-0.713485 -2.35523,-1.59353 0,-0.88005 1.05442,-1.59353 2.35523,-1.59353 z m 5.83026,-1.24349 c 1.30073,0 2.35515,0.713485 2.35515,1.59353 0,0.88005 -1.05442,1.59353 -2.35515,1.59353 -1.30081,0 -2.35523,-0.713485 -2.35523,-1.59353 0,-0.88005 1.05442,-1.59353 2.35523,-1.59353 z m 5.83026,-1.24349 c 1.30081,0 2.35523,0.713485 2.35523,1.59353 0,0.88005 -1.05442,1.59353 -2.35523,1.59353 -1.30073,0 -2.35515,-0.713485 -2.35515,-1.59353 0,-0.88005 1.05442,-1.59353 2.35515,-1.59353 z m 5.83034,-1.2434 c 1.30081,0 2.35523,0.713485 2.35523,1.59353 0,0.88005 -1.05442,1.59353 -2.35523,1.59353 -1.30073,0 -2.35515,-0.713485 -2.35515,-1.59353 0,-0.88005 1.05442,-1.59353 2.35515,-1.59353 z m -28.9552,11.4177 c 1.30073,0 2.35523,0.713485 2.35523,1.59353 0,0.88005 -1.0545,1.59353 -2.35523,1.59353 -1.30073,0 -2.35523,-0.713485 -2.35523,-1.59353 0,-0.88005 1.0545,-1.59353 2.35523,-1.59353 z m 4.91834,-1.11372 c 1.30073,0 2.35523,0.713485 2.35523,1.59353 0,0.88005 -1.0545,1.59353 -2.35523,1.59353 -1.30073,0 -2.35523,-0.713485 -2.35523,-1.59353 0,-0.88005 1.0545,-1.59353 2.35523,-1.59353 z m 4.91826,-1.11372 c 1.30073,0 2.35523,0.713485 2.35523,1.59353 0,0.88005 -1.0545,1.59353 -2.35523,1.59353 -1.30073,0 -2.35523,-0.713485 -2.35523,-1.59353 0,-0.88005 1.0545,-1.59353 2.35523,-1.59353 z m 4.91826,-1.11372 c 1.30073,0 2.35523,0.713485 2.35523,1.59353 0,0.88005 -1.0545,1.59353 -2.35523,1.59353 -1.30073,0 -2.35523,-0.713485 -2.35523,-1.59353 0,-0.88005 1.0545,-1.59353 2.35523,-1.59353 z m 4.91826,-1.11372 c 1.30081,0 2.35523,0.713485 2.35523,1.59353 0,0.88005 -1.05442,1.59353 -2.35523,1.59353 -1.30073,0 -2.35515,-0.713485 -2.35515,-1.59353 0,-0.88005 1.05442,-1.59353 2.35515,-1.59353 z m 4.91826,-1.11372 c 1.30081,0 2.35523,0.713485 2.35523,1.59353 0,0.88005 -1.05442,1.59353 -2.35523,1.59353 -1.30073,0 -2.35515,-0.713485 -2.35515,-1.59353 0,-0.88005 1.05442,-1.59353 2.35515,-1.59353 z m 4.91834,-1.11372 c 1.30081,0 2.35523,0.713485 2.35523,1.59353 0,0.88005 -1.05442,1.59353 -2.35523,1.59353 -1.30073,0 -2.35515,-0.713485 -2.35515,-1.59353 0,-0.88005 1.05442,-1.59353 2.35515,-1.59353 z m 4.91826,-1.11363 c 1.30081,0 2.35523,0.713485 2.35523,1.59353 0,0.88005 -1.05442,1.59353 -2.35523,1.59353 -1.30073,0 -2.35515,-0.713485 -2.35515,-1.59353 0,-0.88005 1.05442,-1.59353 2.35515,-1.59353 z m -30.3921,12.1964 c 1.30073,0 2.35515,0.713485 2.35515,1.59353 0,0.88005 -1.05442,1.59353 -2.35515,1.59353 -1.30081,0 -2.35523,-0.713485 -2.35523,-1.59353 0,-0.88005 1.05442,-1.59353 2.35523,-1.59353 z m 4.79785,-1.05943 c 1.30073,0 2.35515,0.713485 2.35515,1.59353 0,0.88005 -1.05442,1.59353 -2.35515,1.59353 -1.30081,0 -2.35523,-0.713485 -2.35523,-1.59353 0,-0.88005 1.05442,-1.59353 2.35523,-1.59353 z m 4.79777,-1.05935 c 1.30073,0 2.35515,0.713485 2.35515,1.59353 0,0.88005 -1.05442,1.59353 -2.35515,1.59353 -1.30081,0 -2.35515,-0.713485 -2.35515,-1.59353 0,-0.88005 1.05433,-1.59353 2.35515,-1.59353 z m 4.79793,-1.05943 c 1.30073,0 2.35515,0.713485 2.35515,1.59353 0,0.88005 -1.05442,1.59353 -2.35515,1.59353 -1.30081,0 -2.35523,-0.713485 -2.35523,-1.59353 0,-0.88005 1.05442,-1.59353 2.35523,-1.59353 z m 4.79785,-1.05935 c 1.30073,0 2.35515,0.713485 2.35515,1.59353 0,0.88005 -1.05442,1.59353 -2.35515,1.59353 -1.30081,0 -2.35523,-0.713485 -2.35523,-1.59353 0,-0.88005 1.05442,-1.59353 2.35523,-1.59353 z m 4.79785,-1.05943 c 1.30073,0 2.35515,0.713485 2.35515,1.59353 0,0.88005 -1.05442,1.59353 -2.35515,1.59353 -1.30081,0 -2.35523,-0.713485 -2.35523,-1.59353 0,-0.88005 1.05442,-1.59353 2.35523,-1.59353 z m 4.79785,-1.05935 c 1.30073,0 2.35515,0.713485 2.35515,1.59353 0,0.88005 -1.05442,1.59353 -2.35515,1.59353 -1.30081,0 -2.35523,-0.713485 -2.35523,-1.59353 0,-0.88005 1.05442,-1.59353 2.35523,-1.59353 z m 4.79785,-1.05935 c 1.30073,0 2.35515,0.713485 2.35515,1.59353 0,0.88005 -1.05442,1.59353 -2.35515,1.59353 -1.30081,0 -2.35523,-0.713485 -2.35523,-1.59353 0,-0.88005 1.05442,-1.59353 2.35523,-1.59353 z"
   id="path144"
   style="fill:url(#id13)" />
  <path
   class="fil5"
   d="m 61.1912,99.2913 c 0.600389,0.7589 1.2007,1.51773 1.80108,2.27663 8.21637,-1.95377 16.534,-3.84758 25.4918,-5.36613 -0.369514,-0.867319 -0.738864,-1.73456 -1.10838,-2.60188 -8.72814,1.34779 -17.4564,3.47232 -26.1845,5.69137 z"
   id="path146" />
  <path
   class="fil25"
   d="m 88.7262,49.9011 c 5.50009,0.359576 14.9466,2.85911 15.4626,4.34612 0.51596,1.48701 1.59329,2.1007 1.38541,4.27376 -0.2078,2.17306 -0.41559,2.17306 0.0693,3.25959 0.48483,1.08653 3.18641,5.21533 3.04786,6.30195 -0.11334,0.889002 0.0512,3.23208 -0.87126,4.09472 -0.84975,-0.520145 0.64999,-2.98445 -0.71184,-4.03928 -1.36192,-1.05483 -2.40287,-5.37869 -2.52837,-6.12084 -0.89714,-5.30757 0.85738,-3.00235 -1.52405,-7.53336 -0.77649,-1.47732 -11.300704,-2.96556 -14.962204,-3.22805 0.07269,-0.60121 0.492631,-1.23248 0.632502,-1.35461 z"
   id="path148" />
  <g
   id="g168">
   <path
   class="fil26"
   d="m 21.4058,65.6913 c 0.09856,0.03039 0.208863,0.07655 0.332226,0.145128 l -2.3811,1.208 c -0.186441,-0.05774 -0.334444,-0.08304 -0.43292,-0.09404 l 2.4818,-1.25909 z"
   id="path150" />
   <path
   class="fil26"
   d="m 22.1761,66.1387 c 0.07195,0.05848 0.146853,0.123199 0.225289,0.195557 l -2.19253,1.11232 c -0.09864,-0.06242 -0.193997,-0.117121 -0.28541,-0.165086 l 2.25265,-1.14279 z"
   id="path152" />
   <path
   class="fil26"
   d="m 22.9606,66.9168 c 0.06193,0.07121 0.125416,0.146278 0.190465,0.225454 l -2.04354,1.03676 c -0.07392,-0.07466 -0.147181,-0.144635 -0.219622,-0.210588 l 2.0727,-1.05162 z"
   id="path154" />
   <path
   class="fil26"
   d="m 23.8184,68.0235 c 0.05421,0.07679 0.109318,0.156462 0.165333,0.238102 l -1.99065,1.00998 c -0.05536,-0.08213 -0.110715,-0.16139 -0.166072,-0.237774 l 1.99138,-1.01031 z"
   id="path156" />
   <path
   class="fil26"
   d="m 24.8428,69.6119 c 0.04862,0.08386 0.09609,0.167222 0.141925,0.250011 l -2.08148,1.05598 -0.06357,-0.136751 c -0.01955,-0.04172 -0.03926,-0.0823 -0.05889,-0.123034 l 2.06202,-1.0462 z"
   id="path158" />
   <path
   class="fil26"
   d="m 25.6336,71.2028 c 0.03671,0.08928 0.07162,0.17757 0.105047,0.265206 l -2.14308,1.08727 c -0.03269,-0.08739 -0.06653,-0.176092 -0.102009,-0.266684 l 2.14004,-1.08579 z"
   id="path160" />
   <path
   class="fil26"
   d="m 26.1415,72.8087 c 0.02053,0.09568 0.03909,0.190055 0.05536,0.282864 l -2.11499,1.07306 c -0.01938,-0.09043 -0.04098,-0.183238 -0.06456,-0.278265 z"
   id="path162" />
   <path
   class="fil26"
   d="m 26.2923,74.3824 c -0.0043,0.107922 -0.01175,0.21297 -0.0225,0.314896 l -2.07097,1.05072 c 0.01035,-0.100941 0.01675,-0.205167 0.01905,-0.313171 l 2.07442,-1.05245 z"
   id="path164" />
   <path
   class="fil26"
   d="m 26.0892,75.5378 c -0.04353,0.126813 -0.09297,0.246233 -0.148085,0.357441 l -2.10062,1.06575 c 0.05955,-0.11786 0.113179,-0.238677 0.160076,-0.363601 l 2.08863,-1.05959 z"
   id="path166" />
  </g>
  <path
   class="fil5"
   d="m 20.2344,68.4023 c 0.320317,0.161719 0.664945,0.454439 1.00653,0.855656 l -1.72651,0.979184 -0.900501,-1.05031 1.62047,-0.78453 z"
   id="path170" />
  <path
   class="fil27"
   d="m 18.108,69.1037 c 0.669791,-0.654185 1.97463,0.393168 2.91447,2.33946 0.93976,1.94629 1.15848,4.05431 0.488688,4.70849 -0.669873,0.654185 -1.97471,-0.393168 -2.91447,-2.33946 C 17.656928,71.8659 17.438128,69.75788 18.108,69.1037 Z"
   id="path172"
   style="fill:url(#linearGradient399)" />
  <path
   class="fil4"
   d="m 41.7926,46.1745 c 3.98449,-1.75887 8.09383,-3.47741 12.3462,-5.14938 4.25561,-1.6732 8.64264,-3.29548 13.1776,-4.8597 l 0.266274,0.776481 c -4.54037,1.5661 -8.91606,3.18378 -13.1456,4.84672 -4.23262,1.66417 -8.33169,3.3786 -12.314,5.13657 L 41.792573,46.1745 Z"
   id="path174" />
  
  
  
  
  
  
  
  
  
  
  
  <path
   class="fil4"
   d="m 43.0426,48.5633 c 3.98688,-1.71542 8.09621,-3.38829 12.3462,-5.01197 4.23574,-1.61817 8.62186,-3.19077 13.1775,-4.71128 l 0.259867,0.776481 c -4.51975,1.50853 -8.89618,3.07824 -13.1455,4.70159 -4.23516,1.61801 -8.33407,3.2867 -12.314,4.99916 l -0.324095,-0.753976 z"
   id="path198" />
  <path
   class="fil4"
   d="m 44.2894,50.9538 c 3.57966,-1.54541 7.27669,-3.04588 11.1082,-4.49446 3.82417,-1.44586 7.77105,-2.8353 11.8559,-4.16059 l 0.253461,0.779602 c -4.07804,1.32307 -8.01293,2.70816 -11.8206,4.14777 -3.80052,1.43683 -7.48662,2.93336 -11.0729,4.48164 l -0.324095,-0.753976 z"
   id="path200" />
  <path
   class="fil4"
   d="m 45.5394,53.3427 c 7.13058,-2.99619 14.6475,-5.12753 22.5045,-7.35513 0.898283,-0.254611 1.80724,-0.512425 3.03381,-0.862638 l 0.22455,0.789293 c -0.807773,0.230628 -1.92289,0.546838 -3.03693,0.862638 -7.82608,2.21881 -15.3135,4.34185 -22.4082,7.32293 l -0.317689,-0.757097 z"
   id="path202" />
  <path
   class="fil4"
   d="m 46.5864,57.6148 c 4.10778,-1.63 8.63221,-2.73789 13.2734,-3.87427 2.97147,-0.727612 5.99132,-1.46705 8.99261,-2.36837 l 0.234242,0.786008 c -2.99176,0.898447 -6.03748,1.64429 -9.03433,2.37806 -4.61461,1.1299 -9.11309,2.23146 -13.1643,3.83896 l -0.301591,-0.760383 z"
   id="path204" />
  <path
   class="fil28 str0"
   d="m 47.2946,68.7563 c 0,0 0.314896,0.250915 0.874958,0.635459 l -0.797671,0.535258 c -0.189151,-0.191122 -0.285082,-0.301508 -0.285082,-0.301508 z m 1.2416,0.88235 c 0.144471,0.09552 0.299948,0.196297 0.466102,0.301262 l -0.882021,0.688927 c -0.170836,-0.150138 -0.320563,-0.287628 -0.449347,-0.409595 z m 0.83652,0.530987 c 0.162376,0.09897 0.332226,0.200403 0.510207,0.303726 l -0.927358,0.847115 c -0.186934,-0.146196 -0.359494,-0.286396 -0.518585,-0.419944 z m 0.884567,0.517106 c 0.176831,0.09897 0.360397,0.198843 0.549384,0.298962 l -0.938117,1.00908 c -0.205331,-0.143321 -0.399246,-0.284014 -0.582155,-0.421093 z m 0.926455,0.495095 c 0.188823,0.09618 0.38323,0.191944 0.581991,0.286889 l -0.916517,1.17228 C 50.626391,72.502614 50.413914,72.36496 50.210554,72.228702 l 0.973188,-1.04686 z m 0.9621,0.464952 c 0.197693,0.09043 0.400232,0.179377 0.606056,0.266684 l -0.86543,1.334 C 51.649351,73.11713 51.421187,72.986046 51.201319,72.854963 l 0.944524,-1.20817 z m 0.990682,0.425857 c 0.203114,0.08189 0.409431,0.161719 0.619115,0.238841 l -0.788883,1.49325 C 52.719373,73.685317 52.480367,73.56409 52.248261,73.441877 Z m 1.00916,0.377563 c 0.204428,0.07063 0.411402,0.13864 0.62084,0.203442 l -0.690899,1.65004 C 53.82315,74.197823 53.576916,74.089655 53.337829,73.979515 l 0.807855,-1.52931 z m 1.0159,0.321549 c 0.201717,0.05757 0.405242,0.112111 0.610655,0.163033 l -0.575338,1.80552 c -0.253132,-0.09109 -0.500187,-0.185045 -0.741821,-0.281386 l 0.706504,-1.68717 z m 1.01007,0.2565 c 0.194572,0.04328 0.390458,0.08336 0.587658,0.119749 l -0.445405,1.96288 c -0.248533,-0.07556 -0.49222,-0.154163 -0.730979,-0.23531 z m 0.991914,0.188658 c 0.182991,0.02875 0.366968,0.05412 0.551684,0.07597 L 57.41284,75.4156 c -0.239006,-0.0602 -0.474397,-0.123034 -0.705354,-0.188823 z m 0.9598,0.118271 c 0.168125,0.01495 0.336743,0.02678 0.505854,0.03532 l -0.14751,2.28797 c -0.226029,-0.04599 -0.449101,-0.09445 -0.668559,-0.145703 l 0.310214,-2.17758 z m 0.915695,0.04944 c 0.150795,0.0028 0.301755,0.0039 0.452961,0.0012 l 0.01906,2.4597 c -0.210588,-0.03351 -0.418301,-0.06981 -0.623796,-0.108004 l 0.151781,-2.35285 z m 0.861899,-0.01413 c 0.141104,-0.0074 0.282207,-0.01766 0.423311,-0.03022 l 0.279825,2.65321 c -0.230464,-0.02612 -0.458628,-0.05486 -0.683507,-0.08665 l -0.01963,-2.53633 z m 0.830524,-0.07359 c 0.115971,-0.0147 0.232106,-0.03096 0.348078,-0.04953 0.03367,-0.0054 0.06891,-0.01125 0.105376,-0.01766 l 0.614844,2.87111 c -0.263317,-0.01717 -0.522856,-0.03885 -0.779355,-0.06365 z m 0.855903,-0.145457 c 0.147674,-0.03113 0.305204,-0.06653 0.467827,-0.10554 l 1.0416,3.10165 c -0.117285,7.39e-4 -0.235063,5.75e-4 -0.35473,-0.0028 -0.174203,-0.0049 -0.346681,-0.01191 -0.518092,-0.0202 l -0.636609,-2.97311 z m 0.866005,-0.205578 c 0.157119,-0.04123 0.314978,-0.08468 0.469552,-0.129769 l 1.53481,3.24506 c -0.302412,0.03893 -0.613694,0.06406 -0.932204,0.0772 l -1.07216,-3.19249 z m 0.865266,-0.251325 c 0.160487,-0.05207 0.31235,-0.10513 0.45025,-0.158105 l 2.04797,3.25738 c -0.30233,0.08213 -0.614926,0.149563 -0.935736,0.204264 l -1.56249,-3.30353 z m 0.830031,-0.323191 c 0.130755,-0.06538 0.259128,-0.134451 0.385776,-0.20607 l 2.56648,3.17984 c -0.283029,0.121556 -0.574353,0.232189 -0.876025,0.328612 l -2.07623,-3.30238 z m 0.74141,-0.417644 c 0.10669,-0.06727 0.211738,-0.136833 0.315553,-0.208206 l 3.05106,3.0104 c -0.248533,0.148003 -0.505526,0.28615 -0.770814,0.413948 l -2.5958,-3.21614 z m 0.653364,-0.450168 c 0.08123,-0.06119 0.161308,-0.123856 0.240566,-0.187426 l 3.47051,2.76532 c -0.206728,0.157694 -0.420272,0.308408 -0.640387,0.451893 l -3.07069,-3.02979 z m 0.561294,-0.455918 c 0.05659,-0.0492 0.112604,-0.09913 0.16829,-0.149399 l 3.81875,2.47736 c -0.164347,0.15252 -0.333129,0.301098 -0.507332,0.444665 l -3.47971,-2.77263 z m 0.475876,-0.437684 c 0.09322,-0.09092 0.184387,-0.183895 0.274651,-0.27769 l 4.05726,2.20756 c -0.166483,0.185784 -0.338879,0.367625 -0.517106,0.544785 l -3.81481,-2.47465 z m 0.562526,-0.586919 c 0.160405,-0.178474 0.315307,-0.361383 0.465527,-0.547167 l 4.05242,2.15458 c -0.151863,0.200814 -0.309722,0.398835 -0.473412,0.593243 l -4.04453,-2.20066 z m 0.723423,-0.874875 c 0.144471,-0.189398 0.283521,-0.381834 0.418054,-0.575667 l 4.04494,2.10079 c -0.135354,0.209274 -0.276047,0.417233 -0.4229,0.622811 l -4.0401,-2.14793 z m 0.649175,-0.917256 c 0.130919,-0.198679 0.256828,-0.398753 0.37781,-0.598992 l 4.03377,2.04576 c -0.120653,0.216173 -0.246808,0.432346 -0.378877,0.647615 l -4.03271,-2.09438 z m 0.58618,-0.952737 c 0.11901,-0.206645 0.232928,-0.413127 0.341753,-0.618129 l 4.0185,1.9895 c -0.107101,0.221347 -0.220197,0.444419 -0.338879,0.668148 l -4.02137,-2.03951 z m 0.530247,-0.981894 c 0.108415,-0.213955 0.211245,-0.425693 0.308818,-0.634063 l 3.99739,1.93126 c -0.09453,0.225207 -0.194408,0.454028 -0.301016,0.685724 l -4.00519,-1.98293 z m 0.479243,-1.0067 c 0.09897,-0.221183 0.191697,-0.43752 0.278429,-0.647368 l 3.97061,1.87122 c -0.0823,0.22685 -0.171,0.460845 -0.26652,0.70018 l -3.98252,-1.92404 z m 0.432017,-1.02797 c 0.09067,-0.230053 0.173875,-0.450907 0.249354,-0.659113 l 3.93735,1.80938 c -0.06981,0.225782 -0.147181,0.464131 -0.232681,0.713157 l -3.95402,-1.86342 z m 0.386023,-1.04661 c 0.08509,-0.247465 0.158269,-0.473083 0.219458,-0.669873 l 3.89793,1.74589 c -0.05478,0.214694 -0.120735,0.458874 -0.198021,0.725066 l -3.91936,-1.80108 z m 0.338057,-1.06518 c 0.09035,-0.312843 0.133465,-0.492302 0.133465,-0.492302 l 3.87912,1.59362 c 0,0 -0.04066,0.233421 -0.134533,0.635623 l -3.87805,-1.73694 z"
   id="path206"
   style="fill:url(#id1)" />
  <path
   class="fil29"
   d="m 47.7102,67.5974 c 0.254036,1.03824 -0.04616,2.14891 0.207795,3.18715 -4.52567,0.844486 -9.05141,1.93209 -13.5771,3.54944 -0.300194,-1.61776 -0.600306,-3.23553 -0.900501,-4.85329 2.60919,-0.579445 5.21837,-1.15897 7.82756,-1.73842 1.96272,-0.02415 4.47951,-0.120735 6.44223,-0.144882 z"
   id="path208"
   style="fill:url(#id11)" />
  <path
   class="fil30"
   d="m 29.1456,69.3359 c 3.39823,-1.3574 7.40786,-2.79563 11.3604,-3.76676 2.28509,0.292638 5.15168,0.644083 7.06561,2.1007 -4.95078,1.01508 -9.89647,2.36525 -13.9235,3.76668 -1.36233,-0.77262 -3.14017,-1.328 -4.5025,-2.10062 z"
   id="path210"
   style="fill:url(#id7)" />
  <path
   class="fil31"
   d="m 74.1305,54.2888 c -0.03524,-0.02809 -0.0409,-0.07959 -0.01281,-0.114821 0.02809,-0.03524 0.07959,-0.0409 0.114821,-0.01281 0.0013,0.0011 0.478504,0.359823 0.17215,1.35551 -0.01322,0.0432 -0.05913,0.06743 -0.102337,0.05421 -0.0432,-0.01322 -0.06743,-0.05914 -0.05421,-0.102337 0.273091,-0.887606 -0.116546,-1.17893 -0.117614,-1.17975 z"
   id="path212" />
  <path
   class="fil31"
   d="m 68.408,55.0133 c -0.03524,-0.02809 -0.0409,-0.07959 -0.01281,-0.114821 0.02809,-0.03524 0.07959,-0.0409 0.114821,-0.01281 0.0013,0.0011 0.478504,0.359823 0.17215,1.35551 -0.01322,0.0432 -0.05913,0.06743 -0.102337,0.05421 -0.0432,-0.01322 -0.06743,-0.05914 -0.05421,-0.102337 0.273091,-0.887606 -0.116546,-1.17893 -0.117614,-1.17975 z"
   id="path214" />
  <path
   class="fil31"
   d="m 62.6855,55.8198 c -0.03524,-0.02809 -0.0409,-0.07959 -0.01281,-0.114821 0.02809,-0.03524 0.07959,-0.0409 0.114821,-0.01281 0.0013,0.0011 0.478504,0.359823 0.17215,1.35551 -0.01322,0.0432 -0.05913,0.06743 -0.102337,0.05421 -0.0432,-0.01322 -0.06743,-0.05914 -0.05421,-0.102337 0.273091,-0.887606 -0.116546,-1.17893 -0.117614,-1.17975 z"
   id="path216" />
  <path
   class="fil31"
   d="m 56.9016,56.8138 c -0.03844,-0.0239 -0.05027,-0.07449 -0.02636,-0.112932 0.0239,-0.03844 0.07449,-0.05027 0.112932,-0.02636 0.0013,8.22e-4 0.51571,0.305122 0.321056,1.328741 -0.0083,0.04443 -0.05117,0.07367 -0.0956,0.06538 -0.04443,-0.0083 -0.07367,-0.05117 -0.06538,-0.0956 0.173382,-0.912081 -0.245576,-1.15856 -0.246644,-1.15922 z"
   id="path218" />
  <path
   class="fil31"
   d="m 51.3431,58.4151 c -0.04,-0.02103 -0.05536,-0.07072 -0.03433,-0.110715 0.02103,-0.04 0.07072,-0.05536 0.110715,-0.03433 0.0015,7.39e-4 0.529262,0.286642 0.371567,1.31749 -0.0067,0.04476 -0.04854,0.07564 -0.0933,0.06899 -0.04476,-0.0067 -0.07564,-0.04854 -0.06899,-0.0933 0.1402,-0.916927 -0.284425,-1.14756 -0.285657,-1.14813 z"
   id="path220" />
  <path
   class="fil31"
   d="m 45.4123,60.3812 c -0.04,-0.02103 -0.05536,-0.07072 -0.03433,-0.110715 0.02103,-0.04 0.07072,-0.05536 0.110715,-0.03433 0.0015,7.39e-4 0.53805,0.262167 0.427089,1.29794 -0.0047,0.04493 -0.04517,0.07753 -0.0901,0.07285 -0.04493,-0.0047 -0.07753,-0.04517 -0.07285,-0.0901 0.09889,-0.923252 -0.339289,-1.13507 -0.340521,-1.13565 z"
   id="path222" />
  <path
   class="fil31"
   d="m 39.7599,62.1599 c -0.0409,-0.0193 -0.0584,-0.06817 -0.0391,-0.109072 0.0193,-0.0409 0.06817,-0.0584 0.109072,-0.0391 0.0015,6.57e-4 0.542978,0.257403 0.441462,1.29507 -0.0042,0.04493 -0.04427,0.07794 -0.0892,0.07375 -0.04493,-0.0042 -0.07794,-0.04427 -0.07376,-0.0892 0.09026,-0.923252 -0.347338,-1.13096 -0.348488,-1.13146 z"
   id="path224" />
  <path
   class="fil31"
   d="m 34.1177,64.472 c -0.04,-0.02103 -0.05536,-0.07072 -0.03433,-0.110715 0.02103,-0.04 0.07072,-0.05536 0.110715,-0.03433 0.0015,7.39e-4 0.536325,0.267259 0.415919,1.30205 -0.0051,0.04493 -0.04583,0.07729 -0.09076,0.07219 -0.04493,-0.0051 -0.07729,-0.04583 -0.07219,-0.09076 0.107347,-0.922184 -0.328119,-1.13786 -0.329351,-1.13844 z"
   id="path226" />
  <polygon
   class="fil32"
   points="69.7062,80.185 69.4441,78.5914 58.8329,80.2574 58.87,81.9235 "
   id="polygon228" />
 </g>
</svg>
